<svg version="1.2" xmlns="http://www.w3.org/2000/svg" viewBox="0 0 260 400" width="260" height="400">
	<style>
		.s0 { fill: #f9f9fa } 
		.s1 { fill: #1a190c } 
		.s2 { fill: #645b44 } 
		.s3 { fill: #ee5226 } 
		.s4 { fill: #b3b992 } 
		.s5 { fill: #eddf15 } 
	</style>
	<g id="Background">
		<path id="Path 0" class="s0" d="m0 400v-400h260v400z"/>
		<path id="Path 1" fill-rule="evenodd" class="s1" d="m30 132v-96h29v2h-26l-1 4v1 4 1l1 168v12 101l1 40h26v2h-26-2-1v-128-2-1l-1-100zm58-94v-2h27v2h-1-1-9-1zm57-1v-1h15 8 2 1 1 1v1zm57 0v-1h29v132l1 71v25 106l-25 1h-1-1l-2-2h4 1l22-1v-40l-1-132v-10-145-4zm-164 7l1-1h1v2 12 1h-2v-1-9-1-1zm40 11l-1-1h2v1zm6 0l3-1h2l1 1h1v1h-2-1l-1-1zm-12 1v-1h2l2 1zm-2 1v-1h1 1l-1 1zm21 0v-1h1 1 1l1 1 1 1h1v1 1h-1l-2-1-1-1-1-1zm-22 0h1v1h-1zm-3 2l1-1h1 1v1l-1 1-1 1h-1v-1zm20 0v-1h1l4 1 1 1v1h-2-1l-3-1zm11 1h1v1h-1zm-33 2l1-1h1v1 1l-1 1h-1v-1zm28 0v-1h2v1h-1zm6 0v-1h1l1 1 1 1 1 2v1 1l1 1v2l1 1v1 1l1 1 1 1v1l-3 3h-1-1l-4-4v-1l-1-1v-5-1h1v1l1 4v1l1 1v1l3 1h1v-1-1l-1-2v-1l-1-1v-1l-3-6zm-4 1v-1h2l1 1v3l-1-1zm-31 2v-1h1v1 1h-1zm-2 2l1-1h1v2l-2 1v-1zm34-1h1v1h-1zm-2 3v-1h1v2h-1zm-33 1v-1h1l-2 6v-1-3zm39 2v-3h1v1 2zm-35 0h-2l2-2zm26 0l1-1h1v3l-2-1zm10 1v-1h1l1 2v1h-2zm-42 4v-2h1v7l3 1 1 1 1 3v3l1 1v3 1h-1l-1-3v-1l-1-2v-3l-1-1-1-1h-1v1h-1v-4zm36-1v-1l1 1 1 1 1 1v2l-1 1-1-2h-1zm-31 1h-2l2-1zm40 3l3-4h1l1 1v1l1 1 1 1v1l1 1v1 1l-2-1-1-2-1-1h-1l-1 1v4 1l-2-3zm-3 3l1-4v4zm6 0v-2h1l1 1v1zm-10 1v-1h1 1 1v1 2 1l1 2h-1-1l-1-4zm5 0v-1h1v1 1h-1zm10 4v-4h1v1l1 1v1l1 1v1 4 2 1 1 1 2l1 1 1 1 1 1v2l1 1v1 3l1 3v1 1l1 1v1h1l1-1v-1l1-1h1v1 1l-1 1v1l-1 1v1 4h1v3l-1 1-2 1v1l-1 1v1l-1 1v1 1l-2 1-1 1-1 1-1 1-1 1h-1l-1 1-2 1-1 1-1 1v1l-1 1-1 1-1 1-1 1-1 1-1 1-1 1-1 1-1 1-1 1h-1v-2-1l1-1h1l1-1 1-1 1-1 1-1 1-1 1-1 1-1v-1l1-1v-1l2-1h1l1-1 3-2 1-1 1-1 1-1 1-2 2-4v-1l-1-1v-1-1l2-1v-3l-1-1v-3l-1-1v-2l-1-5v-2l-1-1-2-3-1-2v-1h-1v2l2 1v2l-1 1v2h-1l-1-4v-1-1l-1-1v-1h-1v1l-1 1v-1-1-1-1l1-1 1-2h-4-1v-1-1l2-1h1v1l3 1 1 1 1-1v-1zm-54-2v-1h1v1 2h-1v-1zm45 0v-1l1 2h-1zm3 1v-1l1 5h-1zm-3 1l1-1h1v4 1h-1v-1l-1-2zm-46 5v-5h1v1 4zm69-4v-1l2 1v1 1h-1l-1-1zm-25 0h1v1h-1zm0 4l-1-3h1l1 1v1 2 1h-1l-1-1zm9-1l-1-2h3l-1 2zm15-1v-1h1v1 1h-1zm10 0l1-1 1 1v4 1l-1 1v1l-1 1v1l-1 1h-1v-1l1-3 1-1v-1l1-1v-1l-1-1h-1v-1zm-7 1v-1h1v1 1 1h-1zm-4 1v-1h1v1 1h-1zm9 0l-1-1h1 1v1zm-75 2v-1h1v1 1h-1zm65 0v-1h1v1 2h-1zm6 0v-1h1 1v1l-2 2v-1zm-66 1l1-1h1v1 1zm41-1h1v1h-1zm-45 2v-1h1 1l5 31 5-3 2 3-1 1v-1-1h-1-1l-1 1-1 1v1l-1 2v3l-1-1v-2-2l-1-1v-2-4-3l-1-1v-3l-1-1v-1-7l-1-1v-1-1l-1-1v-2l-1-2zm46-1h1v1h-1zm2 0h1v1h-1zm43 0h1v1h-1zm-85 5v-3l2 2v2zm41-1l1-2v1 1zm23-1v-1l1 2v1l-1 1v1l1 1v1h-1l-1 1h-1l-1 1v1h-1v-3-1h1l1-1v-1l1-1v-1zm18 0l1-1h1v2h-2-1v-1zm-24 1v-1h1v2 1h-1zm-18 2l1-2v2zm47-1l-1-1h1 1v1zm-20 0h1v1h-1zm11 2v-2h1l2 1h1l-2 1zm-37 0l2-1-1 8v-1-1-1l-1-1zm4 5v-6 1 1l2 3v1l-1 1v1h-1v-1zm14-5v-1h1v2h-1zm7-1h1v1h-1zm10 0h1v1h-1zm-11 1h1v1h-1zm10 0h1v1h-1zm8 0h1v1h-1zm9 1v-1h1l1 2h-1-1zm-54 1v-1l1 1-1 2zm38 0v-1h1v1 2h-1v-1zm8 0v-1h1 1l1 1 1 2v2h-1v-1l-1-1zm-15 0h1v1h-1zm21 1l-1-1h3v1zm-22 0h1v1h-1zm-2 2v-1h1 1v1h-1zm11-1h1v1h-1zm-37 1h1v1h-1zm25 0h1v1h-1zm13 1v-1h1v1 1h-1zm-39 0h1v1h-1zm21 2v-2h1v1h1 1 1v1l-1 1-1 1-1 1h-1v-1-1zm4-2h1v1h-1zm-21 2l2-1v1l-1 2h-1v-1zm6 2v-3l1 2 1 2v2l1 1v3 1h-1l-1-2v-2l-1-2zm31-2l1-1h1 1v1h-2zm8 1v-2h1v1l1 1v1 1h-1l-1-1zm-48 0l-1-1h2zm43 0v-1h1 1v1h-1zm3 0h1v1h-1zm-45 3l1-2h1v1 1l-1 1h-1zm-1 2h1v1h-1zm5 1v-1h1v1 1 1h-1zm16 0v-1h1 1 2 2v1h-1-2-2zm-22 0h1v1h-1zm21 0h1v1h-1zm7 0h1v1h-1zm-19 2l1-1v1l-1 1zm11 0v-1h1v1l1 3-1 1h-1v-1zm9 0v-1h1v1 2h-1zm-32 1v-1h1 1v1h-1zm26 1v-2l1 1v1zm-27-1h1v1h-1zm17 1v-1h1v2 1h-1zm-18 0h1v1h-1zm16 2l-1-2h1v1zm13-2h1v1h-1zm6 0h1v1h-1zm-36 1h1v1h-1zm31 1v-1l2 1zm4 0v-1h1v1 1h-1zm-36 0h1v1h-1zm16 2l-1-2h1zm13-2h1v1h-1zm-25 3v-2h1v2zm26-2h1v1h-1zm5 0h1v1h-1zm-36 1h1v1h-1zm36 9l-1-8-3-1h1 2 1v1zm-58-6v-2h1v2zm21-2h1v1h-1zm7 1v-1h1v1 1 1h-1zm-33 1l1-1h1 1l-1 3 3-2-2 5h-1v-1l-2-1v-1zm30-1h1v1h-1zm28 1v-1h2v1zm-33 0h1v1h-1zm33 2l-1-2h1l2 1v5-1zm-34-1h1v1h-1zm7 2v-2h1v2zm3 1v-2h1v2zm-35 1v-2h1v1 2zm22-2h1v1h-1zm8 0h1v1h-1zm28 1v-1h1l1 2v1l-2-1zm-37 0h1v1h-1zm12 1l1-1v1l-1 1zm20 1l1-2v2zm-49 0v-1l1 2h-1zm16-1h1v1h-1zm16 2v-2h1v2zm-39 1v-2l1 1v2zm22-2h1v1h-1zm12 0h1v1h-1zm19 1l1-1h1l1 2v1 1 1l1 2 2 4v1 1l1 1 1 3 1 3v1l1 2 1 3 1 2v2l1 1v2l1 2v2l1 1v1l3 6-2-6v-2l-1-1v-2l-1-2v-1l-1-2v-1l-1-2v-2l-1-1v-1l-1-2 1-5 1-1v-1l1-4h1v3 2l-1 2v1l-1 1v1 1l1 1v1 1l1 1v2l1 1v2l1 1v1 1l1 2v3l1 1v2l1 1v2l1 1v1l1 1v1l1 1v1 1l1 1v1 1l1 1v1 1l1 1v2 2l1 1v1 2l1 2v1l4 1-1 1h-2l-1 1-1 1v1l-1 1v1l-1 1v1l-1 1v1l-1 1v1l-1 1v2l-1 2-1 1v1l-1 1v1l-1 1v1l-1 1v1l-1 1v1l-1 1v1l-1 1-1 3h-1v-2-1l1-1v-1l1-1v-1-1l1-1 1-1v-1l1-1v-1l1-2 1-2 1-1v-1l1-2 3-8 1-2v-1l1-1v-2l-1-2v-1-2-1l-1-2v-2l-1-2v-1l-1-1v-2l-1-1v-1l-1-1v-2l-1 2v1l-1 1v3l-1 1-1 3-1 2h-1v-3l2-3v-1l-1-2v-1-2l1 1h1l-1-2v-1l-1-3v-1l-1-2v-1l-1-2v-1l-1-3v-1l-2-1 1 2v1 1l-2 1v1h-1-2v-1h1l1-1v-1l-1-1-1-1v-1l3-1 1-1h-1-2v-1l1-1v-1-1-1-1l-1-1v-4l-1-2-1-1v-4l-1-1-1-1v-2l-1-1v-1l-1-2zm-61 0h1v1h-1zm4 1l-1-1h1 1v1zm6 1v-2l1 1v2h-1zm6-1v-1l1 2h-1zm13-1h1v1h-1zm16 2v-2h1v2zm25 8l2-7v6 1 2l-1 1h-1l-1-1h-1v-1l-1-1 1-3v1l1 1v1zm-72-8v-1h1v1 1h-1zm7 0v-1h1v1 1h-1zm43 1v-2h1v1 1zm17 0v-2h1l2 1v1l-1 1h-1zm-48 0v-1l1 2h-1zm-8 1l1-1v2 1 2 1l-1 2v1h-1l-1-1-1 1v1l-1 1-1 1h-1v-1-1l1-1 1-1v-1-1h1 1l2-4zm-4 0l1-1 2 1v1l-1 4h-1v-1l-2-3v-1zm21 1l1-2v2zm-26 0v-1l1 1v1h-1zm18 0v-1l2 5h-1l-1-1v-2zm41 0h2l1 3v1l1 1v1l1 2v1l-2 3h-1v-2-1l1-1-1-3-1-1-1-2zm14 3v-4l1 4zm-48-2l1-1v1 1h-1zm-24 0h1v1h-1zm1 2v-1h1 1v1zm21 0l1-1h1v1 1l-1 1h-1zm-11 0h1v1h-1zm8 2v-1l3 1v1 1l-1 2v4l1 1v2 1h-1v-1l-1-1v-1-2-4l-1-2zm-8 4v-2l2 2v1h-1-1zm-11 2l1-1h1v1 1l-1 1h-1v-1zm63 2l1-3v1 1 1zm-64 0h1v1h-1zm62 1l1-1h1v2h-1-1zm-25 2l1-2h1v1 2l-1 2-1 1h-1v-1-1l1-1zm27 0l2-1-2 3h-1v-1zm-41 2v-1h1v1l1 1v2 1h-1v-1l-1-1v-1zm12 3v-1h1v1 1h-1zm-10 3v-2h1v1 1l1 1v3 1h-1v-2l-1-1v-1zm9-1v-1h1v1l-1 1zm12 4v-4h3v1l-2 2v1zm-14-2l1-1h1v2l-1 8-2-2-1 3 3 7h-1l-1-1v-1l-1-1v-1-1l-1-1v-1-1l-1-1v-1-1l2-1 1-2v-1l1-1zm17 0v-1h1l2 1v1 1h-1zm-2 4v-2h1v1l-1 2zm5-2h1v1h-1zm1 2v-1h1l1 1 1 1 1 1v1h-1l-2-1-1-1zm17 1l1-2 1 1v2 1l-4 1v-1l1-1zm-43 0v-1h1v1 1h-1zm30 3v-1h1v1 1zm15 2v-3h1v2 1zm-38 2l-1-3h1v2zm14-3h1v1h-1zm10 1v-1h1v2h-1zm12 0h2v2 3 1l-2-4zm3 2v-2h1v1 3h-1zm-24-1h1v1h-1zm2 0h1v1h-1zm8 1v-1h1v1 3 1 5l-1 1v-2-3zm-24 0v3l-1-3zm15 1v-1h1v1 1h-1zm3 4l2-3h1l1 1v1 1l-3 1h-1zm21-2v-1h1v1 1h-1zm-38 4v-4l1 2v2zm13-2v-2h1v1 1zm24 1l-1-2h1v1zm-39 1v-1l2 1v3h-1v-1l-1-1zm18 0v-1h1v1 2l-1 2v1l-1 1h-1v-2l1-1v-2zm21 1v-2h1v2zm-25 1v-2h1v2zm14 1v-1h1v1 1h-1zm12-1v2l-1-2zm-38 2v-1l1 2h-1zm11-1h1v1h-1zm-29 1h1v1h-1zm37 0h1v1h-1zm7 2l1-2h1v3l-1 2v1l-1 1h-1v-2l1-2zm-43 0v-1h2v1 1h-1zm3 0v-1h3v1h-2zm15 0v-1h1l1 1 1 3 2 1-2 3h-1v-2l-1-1v-2l-1-1zm9-1h1v1h-1zm33 0h1v1h-1zm-52 2v-1h1 1v1h-1zm18-1h1v1h-1zm4 1l1-1v1 1h-1zm7-1h1v1h-1zm3 1v-1l1 1v1zm-38 0h1v1h-1zm9 0h1v1h-1zm27 0h1v1h-1zm23 4l-1-4h1 1v1l1 2v2 1h-1v-1zm-58-3h1v1h-1zm9 0h1v1h-1zm17 0h1v1h-1zm-25 2v-1h1v1 1h-1zm9 0v-1h1v1 1h-1zm14 0l1-1h1v2l-1 2-1 3 1 3v1l-2 1-3-6v-1l1-1 1-1zm-4-1h1v1h-1zm31 1v-1h1v2h-1zm-9 1v-1h1l-1 2zm-40 1v-1h1v1 1h-1zm9-1h1v1h-1zm39 1v-1h1v2h-1zm6-1h1v1h-1zm-44 1h1v1h-1zm28 1v-1h2v1h-1zm14 2v-3h1v1l1 1v3h-1zm-51-1v-1h1l1 1v1l-1 1-1 1-1 1h-1v-1-1l1-1zm10 1v-2h1l1 1 1 1v2l-1 1v4h-1l-1-2-1 1h-1l-1-2-1-2h-2v-1h2 2zm-4-2h1v1h-1zm7 0h1v1h-1zm33 1v-1h1v1 2l-1 1h-1v-1-1zm11-1h1v1h-1zm32 1v-1h2v2 1 1h-1l-1-1h-1v-1zm-82 0h1v1h-1zm48 2l-1-2h1v1zm-53 0v-1h1 1v1h-1zm13 0l1-1h1v2h-1-1zm24-1h1v1h-1zm40 4v-4h1 1l1 1v1l-2 1v1 3 1h-1v-3zm-24-1v-2h1v1 1zm32-2h1v1h-1zm-73 2v-1h1v1 1h-1zm3 0v-1l3 4 2 10h-1v-1l-1-1v-1-1l-1-2v-1l-1-1v-1l-1-2v-1zm65 0v-1h1 1l2 1v2 2l1 2v3h1v-1h1l1 1 2 1v1l-1 1-2 1-1 1-1 1h-1-1v-4-2l-1-1v-1l-1-1v-1-1h1l1-2-1-1zm4-1h1v1h-1zm5 1v-1h1v1l1 1v3 1 1h-1l-1-4zm-95 1l1-1h1v1l-1 2h-1v-1zm48 0v-1h1v2h-1zm9 1v-2h1v2zm3-1v-1h1v2h-1zm45-1h1v1h-1zm-95 2l-1-1h1 1v1zm7 3v-4h1v2 2 1h-1zm87-4h1v1h-1zm-97 1h1v1h-1zm40 1v-1h1v1 1zm25-1h1v1h-1zm30 1l1-1h1v1 1l-1 1v1l-1 1-2-1v-1l1-1zm-104 1l1-1h1v1l4 1h3 1 1v1h-5-1-2-1-2zm13-1h1v1h-1zm62 1v-1h1l1 1v1l1 1v6l-1 1h-1l-1 1v1l-4-3h1 3l1-1v-1-2-1-1l-1-1zm13-1h1v1h-1zm-77 2v-1h1 1v1h-1zm5 2v-3h1v1 2zm56-3h1v1h-1zm-24 1h1v1h-1zm23 2v-2h1v1l1 1v2h-1l-1-1zm2-2h1v1h-1zm13 1v-1h1v1 1h-1zm-68 3v-3h1v1 2zm29-2v-1h1v1 1h-1zm50 1v-2h1v1 1zm4-2h1v1h-1zm-50 2v-1h1v1 1h-1zm36 0v-1h1l1 1v1 1h-1l-1-1zm13-1h1v1h-1zm-85 2v-1h1v3l-1-1zm31 1v-1h1v2h-1zm6 0v-1h1v1 1h-1zm46-1h1v1h-1zm3 0h1v1h-1zm-84 2l2-1v1 1l-1 1h-1zm33 0l1-1v2h-1zm40 0l-1 3v-4h1zm9 0l1-1h1v1l-1 2h-1v-1zm-54 1v-1h1v2 1h-1v-1zm25-1h1v1h-1zm-51 6v-5h1 1l1 1 1 1h1v1l1 1h-4v-1h-1v2zm34-4v-1h1v2h-1zm-39 2v-2h1v1h1 1v1 1l-1 1-1 1v1l-1 1v1h-1v-1-1-1l1-1zm14-1v-1l1 2h-1zm41 0l3 3-2-1-1-1zm28 0l1-1h1v2 1h-1-1v1h-1l-1-1v-1l1-1zm-53 1v-1h1v1 1h-1zm-15 1v-1l2 1v1l1 3h-1l-1-1v-1l-1-1zm25-1h1v1h-1zm13 1v-1h1l1 1 1 2h-1-1l-1-1zm20 0l1-1h3v1l-2 1h-1zm15-1h1v1h-1zm-59 2v-1h1v1 1h-1zm50 0l1-1h1v1h-1zm6-1h1v1h-1zm5 0h1v1h-1zm-34 2l2-1 1 1v1h-3zm4 0h2v1 1 2l1 1v1l-1 1v3l1 1v1 1 2 2l1 1 1 1v1l1 1v1l1 1v1 1l1 1v1l1 1v1l1 1v1 1l1 1v2l1 1v8 2h-1l-2-12v-1l-1-2v-1l-1-1v-1l-1-1v-1l-1-2-1-2-3-6v-1l-1-2v-4-8zm18-1h1v1h-1zm5 1v-1h1v2h-1zm3-1h1v1h-1zm5 0h1v1h-1zm-80 2v-1h1v2zm17-1h1v1h-1zm11 1h1v1h-1zm13 0v-1h1l1 1 1 1 2 2v1l-2 2v-2l-1-1-1-1-1-1zm24 0v-1h2v1h-1zm11-1h1v1h-1zm5 1v-1h1v1l-1 2v-1zm-43 1v-1h2l1 1v1 2h-1l-1-2zm18-1h1v1h-1zm6 1l1-1h1 1v2h-1l-1 1-3-1zm11 0v-1l1 2h-1zm-66 1v-1h1v1 1h-1zm9-1h1v1h-1zm39 0h1v1h-1zm-68 1h1v1h-1zm7 1l1-1v1 1h-1zm4 0l2 2v1h-1l-1-1zm55-1h1v1h-1zm13 0h1v1h-1zm8 1v-1l3 2v1h-1-1l-1-1zm-73 2v-2h1v2l1 1v1h-2zm51-2h1v1h-1zm4 1l1-1 2 1-1 1-1 1-1 1-1 1-1 1h-1v-1zm7-1h1v1h-1zm5 3l-1-3h1l1 1v1 1zm-82-2h1v1h-1zm9 1v-1h1v2h-1zm14 0v-1h1l1 1v1 1h-1l-1-1zm33 1l-1-2h1v1zm5-1v-1l1 3v4 1 1l1 2v1l3 5v1l1 1v1 1h-1l-1-1v-1l-1-1v-1l-1-1v-1l-1-1v-1l-1-1v-1l-1-2zm12 0v-1l1 1v2 1h-1zm5-1h1v1h-1zm-51 2l1-1v1 1h-1zm49 0v-1l1 1v1zm3-1h1v1h-1zm12 1v-1h1 2l3 1v2h-1l-1-1h-1-1l-1-1zm-81 1v-1h1l1 1v2h-1l-1-1zm46 1v-2h1v1l2 6-1 1h-1l-2-1-1-2v-1l2 1 2 1-1-2-1-1zm24-1v-1l1 2v1h-1zm3 0v-1h1v1 1zm-58 2v-2h2v1 1l-1 1v3 1h-1zm53 0l-1-2h1zm-4 0v-1h1l1 2v1h-1l-1-1zm10 0v-1h1l1 1v1zm-31 0h1v1h-1zm13 0h1v1h-1zm10 3v-1h1 1l1 1v1h-1-1zm3 1l1-1 1 1v2h-1l-1-1zm-53 3l1-1v1 1h-1zm15 0v-1h1v1 2l-1 1-1 4-1 1v1l-1 1v1l-1 1-1 1-1 8v1h-2v-1-2-4l-1-1v-1-1h1 1l1-1 1-1 1-2 1-1v-1l1-1v-1l1-2v-1zm18 1l1-2v1 1zm-32 1v-1h1v1 1h-1zm34 1l-1-2h1v1zm-33 1v-1h1v1 1h-1zm33 1v-2h1v2 1h-1zm-32 1v-1h1v1 1h-1zm33 0h1v1h-1zm-32 2v-1h1v2 1h-1v-1zm33 1v-2h1v1 2h-1zm4 2v-2h1v1 2h-1zm-36 0v-1h1v2h-1zm34 5l-1-6h1l1 3v1l1 2v2l-1 2h-1v-2zm3-3v-1h1l1 2 1 2v1 2h-1v-1l-1-1-1-2zm0 8l1-2v7-1-1-1zm-36 2v-1h1v1 1zm70-1h1v1h-1zm-2 2l1-1h1v1 1l-1 1-1 1-1 1-2-1v-1l1-1h1zm-68 2l1-1v2 1h-1zm50 2v-1h1 1l1 1v1l-1 2v1 3 1h-1v-1l-1-1v-4zm14-1h1v1h-1zm-63 2v-1h1v1 1h-1zm35-1h1v1h-1zm1 3v-2h1v1 1zm2-1v-1h2v1 2h-1v-1zm4 1v-2h1v1l1 1v2l1 1v2l1 1v1l1 1v1h-1-1l-1-1v-1-1l-1-2v-1l-1-2zm11-2h1v1h-1zm11 2v-2l1 1v1 2l-1 1v8l-1 4h-1-1v-1l1-2v-2-4-1l1-4zm-2-2h1v1h-1zm-61 1h1v1h-1zm10 5l-2 2-2-2v-4l2 3zm26-3v-1h1v1 1h-1zm19-1h1v1h-1zm-16 2v-1h1v2 1h-1zm17 0v-1h1v1 1zm4-1h1v1h-1zm-23 2v-1h1v2 1zm20 3v-3h1l1 1v2 3 1h-1zm-53-1v-1l7 6 1 4h-1l-1-1v-1l-1-1-1-1-1-1-1-1-1-1-1-1zm36 0v-1h1v2h-1zm-3 2l1-2h1v2 2h-3v-2zm13-1v-1h1l1 1 1 2v2 1h-1v-1l-1-1v-1l-1-1zm4-1h1v1h-1zm-13 4v-3h1v2zm14-2v-1h1v2l2 2v2l-1 1-1 1h-1l-1-2h1l1-1-1-1zm-17 3l1-1h2v1l-1 1v3l-2-2v-1zm8 0v-1h1 1l1 1 1 1v1 1h-1l-1-1-1-1zm-5 6l1-5h1l1 1v1 1h-1l-1 2zm12-5h1v1h-1zm-3 4v-2h1l1 1zm-46 0v-1h2 1l1 1h1l1 1 1 1h1v1 1h-1l-1-1-3-2v3 3 1h-1v-1l-1-2v-2-1-1zm42 1l1-2h1 1l1 1v1l-3 1h-1zm21-2h1v1h-1zm-54 2v-1l2 3h-1l-1-1zm45 0l1-1h1l-2 2zm10 0v-1h1 1l-1 1zm-26 2v-2h1v1 1 1h-1zm29-2h1v1h-1zm1 1h1v1h-1zm-57 2v-1l5 5 1 3h-1-1-1v-1-1h-1-1v-1-2l-1-1zm38 0l1-1h2 1 1v1l-1 1v1 1h-1v-1l-1-1h-1l-1 1v3 2 2 1h-1v-1l-1-1v-2-2-1l-3-1v-1l1-1h1 2zm20 1v-2h1l1 1v1zm-77 0v-1h1 2 2v1l-1 1h-1l-1-1h-1zm16 0v-1h1v2l-1 1zm31 0v-1h3v1 1l1 1v1h-1l-2-1v-1zm15-1h1v1h-1zm1 1h1v1h-1zm11 0h1v1h-1zm-70 1h1v1h-1zm60 0h1v1h-1zm-3 2v-1h1v2h-1zm5 0l2-1h1 1v1 1 1 3 1h-1v-1l-2-5zm-61 0h1v1h-1zm6 1v-1h1v1 1h-1zm3-1h1v1h-1zm37 2v-2h2v1l-1 1zm-45-1h1v1h-1zm7 2l2-2h1 1 1 2v1h-1l-1 1-3 3h-2l-1-1h-1v-1zm-6-1h1v1h-1zm5 0h1v1h-1zm40 1l2-1v2 1 1h-1l-1-1h-1v-2zm11-1h1v1h-1zm-54 2v-1h2v1h-1zm11-1h1v1h-1zm44 1v-1h2v1h-1zm-38 1v-1l3 5h-1l-1-1v-1l-1-1zm22 0v-1h1l-1 2zm18-1h1v1h-1zm-50 3l2-2v1 1h-1zm51-2h1v1h-1zm-13 2v-1h1v1 1h-1zm3 0v-1h1v1l1 1v1l1 1v1l1 1v1l1 1v1l1 1v1l1 1v1 1 1h-1v-1l-1-1v-1l-1-1v-1l-2-3v-1l-1-1-1-2zm11-1h1v1h-1zm-56 2l-1-1h1 1zm38 0v-1h1l1 1v1h-1zm-37 1l2-1 1 1v1l-3 2v5l1 1v1 1h-2-1v-1-6l-2 2h-1v-1l1-2h1l2-2zm42 0v-1h1v1 1h-1zm-50 1v-1h2 2v1h-2zm24 0v-1l1 2h-1zm23 1v-2h1l1 2 1 1v1l1 2v1h-1l-1-1v-1l-1-1-1-1zm-36-1h1v1h-1zm40 1v-1h1v1 1h-1zm-39 0h1v1h-1zm-3 3v-2h1zm4-2h1v1h-1zm13 1v-1l3 4h-1l-1-1-1-1zm6 0v-1l1 1v1h-1zm20 0v-1h1v1 1h-1zm-38 1h1v1h-1zm20 3l-1-3h1v2zm19-2v-1l1 2h-1zm-51 1v-1h1v1l1 5v1 1h-1-1l-1-5v-1zm8-1h1v1h-1zm3 2l1-1 1 1v1l-1 2v1l-1 1h-1v-1-1l1-1zm38-1h1v1h-1zm3 1v-1h1v1 1h-1zm-24 1v-1l2 1h-1zm9 3l-5-4h1 1l1 1v1l2 1zm13-1v-3h1v2 1zm-20-1v-1l1 2h-1zm23-1h1v1h-1zm-51 3v-1h2v1h-1zm5-1h1v1h-1zm42 0h1v1h-1zm3 3l1-3h2v1l-1 1-1 1zm-20-1v-1l3 3h-1-1l-1-1zm26 1l-1-2h1v1zm-49 1l1-2v1 1zm28 0v-2h1l1 1v2zm16 0v-1h1v2h-1zm5 0v-1h1v1 1h-1zm-23 1v-1h2v2h-1zm22 1l-1-2h1v1zm-3 0v-1l1 2h-1zm6 1l-1-2h1v1zm-22 0h1v1h-1zm17 1v-1l1 2h-1zm6 1l-1-2h1v1zm-22-1h1v1h-1zm1 2v-1h1v1 1h-1zm21 0v-1h1v1 1 1h-1zm-20 2v-1l2 1 2 3v1 1h-1l-1-1v-1l-1-1-1-1zm21 1v-1h1v1 1h-1zm-1 2v-2 1zm2 0v-1h1v1 1h-1zm-1 2l-1-2h1zm-11 1l2-2h1v1l-1 1-1 2v2zm-6 0v-1l2 1v2h-1l-1-1zm9 0v-1h1 1v1zm10-1h1v1h-1zm-8 2v-1h1 1v1h-1zm6-1h1v1h-1zm-4 1h1v1h-1zm7 1l1-1v1 1h-1zm-18 1v-1l1 2h-1zm12-1h1v1h-1zm1 2v-1h2 1v1h-1-1zm4 1l2-2h1v2l1 1v1l1 1v1 1h-1l-1-1-1-1-1-1-1-1zm-16 0v-1l3 2 1 2h-1-1l-1-1zm4 0v-1h1v2h-1zm4 0l1-1h1l1 1v1h-3zm7-1h1v1h-1zm-11 4l1-2h1v2l1 1v1 1h-1-1l-1-1v-1zm7-2h1v1h-1zm-3 2l2-1v2h-2zm4-1h1v1h-1zm3 2l-2-1h1 1zm1 0h1v1h-1zm-7 1h1v1h-1zm2 2l1-2 2 2h-1zm10 0v-2h1v1 1zm-14-1h1v1h-1zm1 1h1v1h-1zm6 0h1v1h-1zm4 0h1v1h-1zm4 1v-1h1v1l1 1v1 1l1 1v1 1 1h-1v-1l-1-1v-1l-1-2zm-13 1v-1h1l1 1h-1zm6-1h1v1h-1zm-4 1h1v1h-1zm1 1h1v1h-1zm1 1h1v1h-1zm1 1h1v1h-1zm1 1h1v1h-1zm1 1h1v1h-1zm1 1h1v1h-1zm8 1v-1h1v1 1zm26 0l2 11v1l-1 1h-1v-3zm-33 1v-1h1 1v1zm3 1l1-1h1v1h-1zm2 1v-1h2v1h-1zm2 0l1-1h1l1 1v2h-1l-2-1zm-106 17v-2h5 1 21v2zm57 0v-2h27v2h-1-4-1-19z"/>
		<path id="Path 2" fill-rule="evenodd" class="s2" d="m160 36v-1h8v1zm10-1h1v1h-1zm2 0h1v1h-1zm30 1l29-1v1zm-87 2v-2h1v1zm87 0v-1h27v4h-1v-3zm-170 4l1-4v1 3zm0 5v-4h1v4zm6-4h1v1h-1zm-1 3v-2h1v2zm-2 0h1v1h-1zm2 1h1v1h-1zm-4 169l-1-168h1zm46-162v-1h8v1l-3 1h-5zm-5 1v-1h2 1l1 1v1h-2zm15-1h1v1h-1zm-18 1h1v1h-1zm20 0h1v1h-1zm-22 1h1v1h-1zm22 1l-2-1h2zm-54 0h1v1h-1zm31 0h1v1h-1zm2 0h1v1h-1zm25 0h1v1h-1zm-57 2v-1h2v1zm31-1h1v1h-1zm25 2v-1l2 1zm3-1h1v1h-1zm-32 1h1v1h-1zm27 1v-1h2v1zm4-1h1v1h-1zm2 0h1v1h-1zm-34 1h1v1h-1zm2 0h1v1h-1zm24 1v-1h2v1 2h-1zm4 0v-1h2v1zm3-1h1v1h-1zm2 0h1v1h-1zm-6 1h1v1h-1zm3 0h1v1h-1zm-33 1h1v1h-1zm29 1l2-1 2 2v1h-1v1l-1 1h-1l-1-1zm5 2v-3h1l3 6h-1-1l-1-1-1-1h-1v-1zm-33-2h1v1h-1zm-2 1h1v1h-1zm-1 1h1v1h-1zm2 2v-2h1v2zm32-1h1v1h-1zm7 0h1v1h-1zm-41 2l2-1 1 1v1l-2 2h2v2l-1 1v1l-2 1h2v2l-1 1v3l-3-1v-7zm-1-1h1v1h-1zm32 0h1v1h-1zm2 2v-2h1zm4 2l-1-4h1l1 1v3zm-39-2h1v1h-1zm31 2v-2h1v1zm2-1v-1h1 1v5 1h-1l-1-1v-1zm8 1v-2h1l1 1-1 1zm3-2h1v1h-1zm-4 2h1v1h-1zm3 2l-1-2h1l1 2zm-4-1h1v1h-1zm6 0h1v1h-1zm-46 1h1v1h-1zm39 4v-3l4 4-1 4h-1l-1-1 1-3-2 1zm5-2l-3-1h1 2zm1 3l3-3-3 4zm5-1h1v1h-1zm-13 2v-1l1 2zm6 3v-4h1v4zm6-2v-1l1 1v1zm-50 4v-4h1v4zm53-4h1v1h-1zm-10 2h1v1h-1zm2 1l1-1 2 3v1h-1-1l-1-2zm3 1l1-2h2 1l2 1v4h-1 1l1 4h-2l1-2h-3l-1 1h-1l-1-5zm6-2h1v1h-1zm-12 3v-2h1zm-41-1h1v1h-1zm39 1v-1l1 4zm4-1h1v1h-1zm11 0h1v1h-1zm-56 2h1v1h-1zm44 2l-1-2 2 2zm2-2h1v1h-1zm11 0h1v1h-1zm12 1v-1h2v2zm-68 0h1v1h-1zm5 3v-2l1 2zm37-2h1v1h-1zm36 1l1-1h1v2h-1zm-35 0h1v1h-1zm27 0h1v1h-1zm-23 2v-1h1 1zm19-1h1v1h-1zm3 0h1v1h-1zm-63 4v-3l1 3zm38-1v-2l2 1v1zm2-2h1v1h-1zm7 1l-3-1h2 1zm14-1h1v1h-1zm6 1l1-1 1 1-2 2v-1zm-74 1v-1h1 1v1h-1zm66-1h1v1h-1zm6 0h1v1h-1zm-25 1h1v1h-1zm2 1v-1h4l-1 2h-1-1zm18-1h1v1h-1zm4 0h1v1h-1zm7 0h1v1h-1zm-72 1h1v1h-1zm2 0h1v1h-1zm37 1v-1h2l1 1v1h-2zm3-1h1v1h-1zm24 2l2-2-1 5-1-2zm22-2h1v1h-1zm-80 29l-5 3-5-31h2l2 1 1-1 1 4-2-2v3l2 1-2 8zm30-26v-2h1l1 1v1zm7-2h1v1h-1zm-3 2v-1h1 1 1v1h-1l-1 2-1 2 1 1v3l-2-1-1-1v-1l1-1zm17 0v-1h1 1v2h-1zm27 0v-1h1l1 2 1 1h-1-2zm-89 2v-2l1 2zm87-2h1v1h-1zm-40 1h1v1h-1zm-1 3v-2h1l1 1 1-1h1l1 1-1 1v6 1 1l-2 1-1-1 1-8-2 1zm6-1l1-1 1 2zm3-1h1v1h-1zm29 1v-1h1 1 1l-1 2zm-28 0h1v1h-1zm17 0h1v1h-1zm9 1v-1h1v2h-1zm10 0v-1h1 1 2v1l-1 1-2-1zm-42 0h1v1h-1zm4 2v-2l2 3zm3-2h1v1h-1zm6 0h1v1h-1zm7 0h1v1h-1zm2 0h1v1h-1zm8 0h1v1h-1zm5 1l2-1 1 1 1 1v1h-2l-2-1zm11 0v-1h1v1 1zm-46 1l1-1 1 4zm20 0l-1-1h1zm1-1h1v1h-1zm4 2l4-2h1v1h-1l-1 1h-1l-1 1h-1zm6-2h1v1h-1zm-17 1h1v1h-1zm6 0h1v1h-1zm10 0h1v1h-1zm11 0h1v1h-1zm-33 1h1v1h-1zm15 0h1v1h-1zm9 2v-2h1v1 1zm11 0l-1-2h2l1 1v1h-1zm4-2h1v1h-1zm-25 1h1v1h-1zm2 0h1v1h-1zm-22 1h1v1h-1zm29 0h1v1h-1zm-35 1h1v1h-1zm19 0h1v1h-1zm4 0h1v1h-1zm2 0h1v1h-1zm11 0h1v1h-1zm-39 1h1v1h-1zm1 1l1-1h1v2h-2zm24-1h1v1h-1zm2 0h1v1h-1zm14 1v-1l2 1-1 1h-1zm8 0v-1h1 1v1h-1zm-42 0h1v1h-1zm10 3l-1-3h1zm28-3h1v1h-1zm-2 2v-1h2v1zm4 0v-1l1 1v1h-1zm4-1h1v1h-1zm-2 1h1v1h-1zm-47 3v-2h2l-1 2zm3-2h1v1h-1zm16 0h1v1h-1zm-13 4v-3l2 2-1 1zm12-3h1v1h-1zm2 0h1v1h-1zm-11 3v-2l1 2zm6-2h1v1h-1zm-14 2v-1h1l-1 2zm16-1h1v1h-1zm6 1v-1h2v1zm-16 1v-1h1 1v2l-1 1h-1v-1zm20-1h1v1h-1zm-6 1h1v1h-1zm5 0h1v1h-1zm2 0h1v1h-1zm-31 2v-1h1 1v1h-1zm12 0l1-1 1 2-1 1h-1l-1-1zm11-1h1v1h-1zm7 0h1v1h-1zm-20 5l-2-4h1 1l1 4zm22-2v-2h1v2zm-35-1h1v1h-1zm2 0h1v1h-1zm15 0h1v1h-1zm12 0h1v1h-1zm-64 5v-4h1v4zm34-4h1v1h-1zm29 0h1v1h-1zm2 1v-1h2 1v1 1h-1zm4-1h1v1h-1zm-34 1h1v1h-1zm16 1v-1l1 2h-1zm3 0v-1h1 1zm7 0l1-1h1v1h-1zm3-1h1v1h-1zm6 0h1v1h-1zm-36 1h1v1h-1zm19 0h1v1h-1zm15 0h1v1h-1zm-36 2v-1h1 1v1h-1zm6 1v-2h1v2zm24-2h1v1h-1zm2 0h1v1h-1zm5 0h1v1h-1zm-38 1h1v1h-1zm32 2v-2h1l3 1 1 8v9h-1l-1-4-1-1-2 7-1-2v-1-6-1-2l2 1h1v-5-2zm5-2h1v1h-1zm-60 2l1-1h1v2l-3 2zm-1-1h1v1h-1zm25 0h1v1h-1zm5 0h1v1h-1zm-32 1h1v1h-1zm25 1v-1h1 1l-1 1zm5 0l1-1h1v2h-1-1zm18 3v-4h1 1zm4-3l2-1v1zm-54 2l1-2v2zm5 3l2-5h1l1 2v1l-1 1v2l5 9v2l-3-1-2-5-1-2-1-2zm19-3l1-2 1 1v1l-1 1zm38-1l-2-1h2zm-26 1l-1-1h1 1v1zm-35 0h1v1h-1zm59 1v-1l2 3h-1zm-58 1v-1l2 1h-1zm22-1h1v1h-1zm8 1l1-1h1l1 1-1 1-1 1h-1l-1-1v-1zm26-1h1v1h-1zm-60 3v-2h1l1 1h1l1 1v1 1h-1l-1-1h-1zm25-2h1v1h-1zm13 1v-1h1 1v1h-1zm-32 0h1v1h-1zm18 0h1v1h-1zm12 1l1-1h1v2h-1-1zm24 1l-1-2h1zm-67 0v-1h3v1h-1l-2 1zm30-1h1v1h-1zm29 1l2-1-1 1zm4 1l-1-2h1 1l1 2h-1zm-65 0v-1h1v1l-1 1zm16-1h1v1h-1zm13 2l1-2v1 1zm2-2h1v1h-1zm14 2l-2-2h1 1zm4-1l-1-1h1 1v1zm-44 0h1v1h-1zm2 1l1-1h1l1 1h1v1l-1 1h-1l-2-1zm10 0h1v1h-1zm30 1v-1l2 2 1 2-1 1h-1v-1l-1-1zm-48 0h1v1h-1zm7 0h1v1h-1zm5 2v-2h1v2zm38-1v-1h1 1l1 1-2 1zm4-1h1v1h-1zm-78 101v-100l1 100zm25-100h1v1h-1zm4 0h1v1h-1zm14 0h1v1h-1zm48 2l-1-2h1zm0 0l1-2h1 1 1v3h-1l-1 3zm-61 1v-2l2 3h-1-1zm3 2l1-4h1zm19-4h1v1h-1zm32 2v-2h1v2zm4 1l-1-3h1zm-62-2h1v1h-1zm10 2v-2h1l1 1 1 1h-1zm-9-1h1v1h-1zm58 1v-1l1 2zm-12 0h1v1h-1zm21 0h1v1h-1zm4 1l1-1h1l-1 4-1-2zm-63 2l1-2h1v1zm3-1v-1h1 1v5l-2-2zm7-1h1v1h-1zm27 0h1v1h-1zm-23 1h1v1h-1zm22 0h1v1h-1zm-41 1h1v1h-1zm40 0h1v1h-1zm-36 1h1v1h-1zm14 2l1-2v2zm21-2h1v1h-1zm24 0h1v1h-1zm2 4v-4l1 1 2 1-1 5h-1zm-60-2v-1h1l2 1v1h-1-1zm11 3v-4h1v4zm22-4h1v1h-1zm30 0h1v1h-1zm2 2l1-2v2zm-72-1h1v1h-1zm39 0h1v1h-1zm21 3l2-3h1v1l-1 3h-1zm4-1v-2l1 2zm-63-1h1v1h-1zm10 0h1v1h-1zm47 2v-2h1v2zm5-1h1v1h-1zm-27 2v-1h1v2h-1zm-16 0h1v1h-1zm40 0h1v1h-1zm2 2v-2h1l1 2-2 1zm-64-1h1v1h-1zm39 0h1v1h-1zm31 1l1-1 1 2-1 1zm3-1h1v1h-1zm-11 1h1v1h-1zm-39 1h1v1h-1zm40 0h1v1h-1zm-41 1h1v1h-1zm14 0h1v1h-1zm2 2l1-2v1zm34 1l-1-3h1l1 1zm2-3h1v1h-1zm-11 1h1v1h-1zm2 2l2-2v2zm-30-1h1v1h-1zm-7 4l1-3v1zm8-3h1v1h-1zm30 3l-2-3h1l2 1v1zm1-3h1v1h-1zm6 2l-1-2h1l1 2zm2-2h1v1h-1zm-50 1h1v1h-1zm9 0h1v1h-1zm-10 3v-2h1v2zm11-2h1v1h-1zm11 1v-1h2l1 1zm-13 0h1v1h-1zm33 1v-1h3zm7 0l1-1 1 2h-1zm3-1h1v1h-1zm-5 3l-1-2 2 1zm-38 8l1-8v8zm14-8h1v1h-1zm24 1l1-1 1 3h-1l-1-1zm3 0l1-1 1 2-1 1zm4 1l-1-2h1zm-25-1h1v1h-1zm123 71l-1-71h1zm-149-70h1v1h-1zm3 2v-2h1zm17 0l1-2 1 1v2 3h-1l-1-1v-2zm5-2h1v1h-1zm17 1l2-1-1 2zm-43 0h1v1h-1zm2 2v-1h2zm40 0l-2-1h2zm1-1h1v1h-1zm3 1l1-1 1 2h-1-1zm-45 0h1v1h-1zm48 0h1v1h-1zm3 0h1v1h-1zm-45 11l-3-7 1-3 2 2 1 3 1 3v-3l1 3v4l-2-1zm23-10h1v1h-1zm12 1l4-1v3h-2l-2-1zm-10 0h1v1h-1zm15 1l1-1 1 2h-1-1zm4-1l2 6-3-6zm-18 3v-2h1v2zm20-2h1v1h-1zm-30 2l-1-1h1 1v1zm23 1v-2h1v2zm-22-1h1v1h-1zm8 0h1v1h-1zm16 3v-3h1l1 3h-1zm-23-2h1v1h-1zm9 3v-3h1zm12 5l-2-8 2 4 1 2v2zm-23-5v-1h1 1v1h-1zm7-1h1v1h-1zm17 0h1v1h-1zm8 0h1v1h-1zm-9 1h1v1h-1zm3 1v-1h1l1 2h-1zm4 1l1-2v2zm-6 0l1-1h1v2h-1-1zm-41 0h1v1h-1zm16 2l1-2h1v1l-1 1zm4-2h1v1h-1zm2 1l3-1v1h-1zm4 0v-1h1v3h-1zm-25 0h1v1h-1zm20 0h1v1h-1zm-17 4v-3h1l1 5h-1zm39-1v-2l1 2zm8-2h1v1h-1zm-10 1h1v1h-1zm-26 2l1-1h1l-1 1zm5 1l1-2h1l2 2h-1zm7-1l1-1 1 1v1 1 2h-1l-1-1v-1zm13 2v-3h1l1 2v-2h1l1 1-2 3zm-37-2h1v1h-1zm28 0h1v1h-1zm21 0h1v1h-1zm-67 1h1v1h-1zm29 1l1-1h1l-1 1zm16 1v-2h1zm-44-1h1v1h-1zm3 0h1v1h-1zm4 1v-1h2v1 1h-2zm11-1h1v1h-1zm19 1v-1h1 1v1h-1zm-26 1v-1h1v1 1zm21-1h1v1h-1zm23 3l1-3v3zm6-3h1v1h-1zm6 0h1v1h-1zm-37 1h1v1h-1zm8 0h1v1h-1zm1 1l1-1h1l1 1v1h-1-1-1zm4 1v-2h1zm14 0l1-2v2zm-43-1h1v1h-1zm17 0h1v1h-1zm33 2l-1-2h1zm-60-1h1v1h-1zm9 0h1v1h-1zm11 1l-2-1h2zm18 1v-2h1v2zm4-2h1v1h-1zm10 2v-2h1l1 1 1 2h-1zm-41-1h1v1h-1zm39 0h1v1h-1zm-49 1h1v1h-1zm7 2v-2l2 1v1h-1zm2-2h1v1h-1zm29 1v-1h1 2v1h-2zm12 1v-2h1zm13-2h1v1h-1zm87 132v-132l1 132zm-140-131h1v1h-1zm45 1v-1h1 1v2h-1zm-46 0h1v1h-1zm1 1l1-1h1v2l-2 1v-1zm6-1h1v1h-1zm33 0h1v1h-1zm5 0h1v1h-1zm4 0h1v1h-1zm-43 2l-1-1h1 1v1zm3-1h1v1h-1zm23 1v-1h2l-1 1zm6-1h1v1h-1zm12 2v-2h1l1 1v3zm2-2h1v1h-1zm20 0h1v1h-1zm9 0h1v1h-1zm-84 2v-1l2 1zm11-1h1v1h-1zm2 2v-2l3 6zm4-1l2-1v4h-1zm42 1l-1-2h1zm18-2h1v1h-1zm6 0h1v1h-1zm-84 1h1v1h-1zm79 0h1v1h-1zm4 0h1v1h-1zm2 0h1v1h-1zm3 0h1v1h-1zm12 0h1v1h-1zm-106 1h1v1h-1zm9 2v-2l1 2zm10-2h1v1h-1zm28 1v-1h1 1l-1 1zm9 0l-1-1h1l1 1zm3-1h1v1h-1zm31 0h1v1h-1zm3 0h1v1h-1zm11 1l1-1h1v1h-1zm-103 0h1v1h-1zm15 0h1v1h-1zm42 0h1v1h-1zm25 0h1v1h-1zm6 2v-2h1zm6-2h1v1h-1zm8 0h1v1h-1zm-96 2l1-1 1 1v1h-2zm3 0v-1l1 2h-1zm7 1v-2h1v2zm29-2h1v1h-1zm23 1l1-1h1v1 1zm12-1h1v1h-1zm21 0h1v1h-1zm-104 1h1v1h-1zm15 1v-1l1 2h-1zm10 0l2-1h1v1 3l2-1v11l-2-1-1-2zm24-1h1v1h-1zm11 2l-2-2h1zm36 2v-4l1 4zm7-4h1v1h-1zm2 0h1v1h-1zm-104 1h1v1h-1zm10 0h1v1h-1zm36 2v-2h1l1 1v1h-1zm17 0v-2h1zm9-2h1v1h-1zm20 2l2-2v5h-1-1v-1zm9-2h1v1h-1zm-104 3v-2h1v2zm18-2h1v1h-1zm54 0h1v1h-1zm2 0h1v1h-1zm15 0h1v1h-1zm14 0h1v1h-1zm-84 1h1v1h-1zm52 2l1-2v2zm2-2h1v1h-1zm2 1v-1h1l1 1zm3-1h1v1h-1zm8 0h1v1h-1zm16 0h1v1h-1zm-98 2v-1h2v1zm16-1h1v1h-1zm29 0h1v1h-1zm50 0h1v1h-1zm3 1l1-1 2 1v1h-1l-1 1h-1-1v-1zm-1-1h1v1h-1zm-85 2v-1h1 1l-1 1zm10 1v-2l1 2zm43-1l1-1h1v3 1l1 1 4 3 1 1v2h-2-1l-1-1-3-3h-1zm5 1v-2h1v1 1zm13-2h1v1h-1zm2 0h1v1h-1zm-42 2l1-1h1v1h-1zm6-1h1v1h-1zm44 1v-1h1 1v1 1zm-79 2l1-2h1v1zm32 0l2-2h1v1h-1l-1 1zm23-2h1v1h-1zm17 0h1v1h-1zm10 0h1v1h-1zm-85 4v-3h1l1 1v2h-1zm31-3h1v1h-1zm25 0h1v1h-1zm18 5v-5h1v4l1-3h1v4zm10-5h1v1h-1zm3 0h1v1h-1zm-82 1h1v1h-1zm27 2v-2h1zm6 0v-2h1v1 1zm19-2h1v1h-1zm4 0h1v1h-1zm-54 1h1v1h-1zm29 1v-1h1l1 1 1 2v1l-1 1zm48-1h1v1h-1zm-82 2v-1h1 1l-1 1zm6-1h1v1h-1zm5 0h1v1h-1zm72 2v-2h1l2 1v1 1h-1zm-45-1h1v1h-1zm13 0h1v1h-1zm28 0h1v1h-1zm-74 2h4l1 2h-1l-1 1h1l1 1h1v2h-1l-1 2-2-2h-2zm3-1h1v1h-1zm4 0h1v1h-1zm37 1l2-1v1zm3-1h1v1h-1zm23 0h1v1h-1zm3 0h1v1h-1zm9 1v-1h1v1 1zm-59 0h1v1h-1zm9 1l1-1h1l1 1v1l1 1-1 2-1-1-1-1h-1l-1-2zm17 1l-1-2h1l2 1zm15-1l1-1h1l1 1-6 3v-1-1h1l1-1zm4 0l2-1 1 1v1h-2zm9-1h1v1h-1zm2 0h1v1h-1zm5 0h1v1h-1zm-92 1h1v1h-1zm5 5v-5h1 1v4l-1 1zm14-2l-1-3 2 3zm34-2l1-1 1 1h-1zm27-1h1v1h-1zm3 0h1v1h-1zm5 0h1v1h-1zm5 0h1v1h-1zm-63 1h1v1h-1zm22 0h1v1h-1zm4 0h1v1h-1zm31 0h1v1h-1zm5 0h1v1h-1zm-64 2l1-1h1v1h-1zm17 1v-2h1zm10-2h1v1h-1zm1 1l1-1h3 1v8l-1-1-1-3v-1h-1zm11-1h1v1h-1zm10 2v-2h1v2 1h-1zm7-2h1v1h-1zm4 0h1v1h-1zm5 2l1-2h1v2 1 2 1l-3-1 1-1v-1zm-94-1h1v1h-1zm19 0h1v1h-1zm22 1v-1h1 1v1 1 1h-1v-1zm26 0v-1h1v1 1h-1zm2-1h1v1h-1zm-48 2v-1l2 2h-1zm8-1h1v1h-1zm25 2v-2h1l1 1-1 1zm16-1v-1h3l3 1v1l-1 1v1l-2-1-1-1zm16-1h1v1h-1zm-86 1h1v1h-1zm8 0h1v1h-1zm19 1l1-1h1v1 1h-1zm37-1h1v1h-1zm2 0h1v1h-1zm11 0h1v1h-1zm-70 1h1v1h-1zm14 0h1v1h-1zm22 0h1v1h-1zm9 2l1-2h1l1 2v2l-2-1zm5 0l2-2 1 1-1 8h-1l-2-6zm8-2h1v1h-1zm25 0h1v1h-1zm-80 2l1-1 1 1v1h-1zm3 0v-1h1v2h-1zm2-1h1v1h-1zm12 0h1v1h-1zm17 0h1v1h-1zm45 0h1v1h-1zm-81 1h1v1h-1zm16 1v-1h2v1zm54-1h1v1h-1zm3 0h1v1h-1zm-58 2v-1h1v2h-1zm3-1h1v1h-1zm26 2v-2h1v2zm25 0v-2h1zm6-2h1v1h-1zm-11 1h1v1h-1zm-7 2l-1-1h1zm14 2v-3h1 2 1l2 1v1l-4 2h-1zm6-3h1v1h-1zm-33 1h1v1h-1zm3 1l1-1 1 2zm10-1h1v1h-1zm-24 1h1v1h-1zm20 2l1-1 1 2-1 1zm17-1h1v1h-1zm-38 3l1-2v2zm14-1v-1l2 1h-1zm3 0l1-1h1l1 2h-1l-1 2h-1v-1zm20-1h1v1h-1zm-53 3v-2h1 1v1l-1 1zm17-1h1v1h-1zm21 1l1-1 3 6h-1zm-36 0h1v1h-1zm13 0h1v1h-1zm20 1v-1h1l1 1h-1zm6-1h1v1h-1zm-40 1h1v1h-1zm32 1l1-1h1l1 2v2h-1l-1-1-1-1zm-30 0h1v1h-1zm11 1v-1h1l-1 2zm22 0v-1h1l1 1h-1zm-117 2v-2h1v2zm83-2h1v1h-1zm2 1h1v1h-1zm-1 1h1v1h-1zm10 0h1v1h-1zm24 0h1v1h-1zm4 1l1-1 1 2h-1zm-5 0h1v1h-1zm2 1v-1h1l1 1h-1zm-34 0h1v1h-1zm31 2v-2h1zm3 0l-1-2h1zm4-1l1-1 1 2h-1-1zm-31 2v-2h1zm28 0v-2h1l1 1-1 1zm6-2h1v1h-1zm-39 1h1v1h-1zm34 1l1-1h1v2l-1 2zm-35 0h1v1h-1zm5 0h1v1h-1zm27 1v-1h1 1l1 6h-1l-1-2-1-1v-1zm6 1v-2h1l1 1-1 1zm3-2h1v1h-1zm-40 2h1v1h-1zm36 0h1v1h-1zm3 2l-1-2h1l1 1zm-35 7l1-8 6 21-2-3v4l2 2 2-2 3 4-2 2-7-6v-8l-1-4-1-1zm36-5l-1-2h1l1 2zm2-1h1v1h-1zm-2 4v-2h1l2 12h-1-2l2-2h-4v-1-7h1zm-7 1v-2h1v2zm2 0l1-2h2v1l-1 2zm8-2h1v1h-1zm-9 2h1v1h-1zm37 1l1-1v2h-1zm-70 0h1v1h-1zm34 1l2-1 1 2h-3zm-33 1v-1h2v1zm68-1h1v1h-1zm-70 4v-3h1l1 1v1l-1 1zm69-3h1v1h-1zm-32 1h1v1h-1zm31 0h1v1h-1zm-17 2h1v1h-1zm14 0h1v1h-1zm-63 1h1v1h-1zm35 0h1v1h-1zm7 2v-2h1v2zm21-1l1-1 2 1v2h-1l-1-1h-1-1v-1zm-64 0h1v1h-1zm53 1v-1h1v1 1zm-12 1l1-1h1v2l-1 1h-1zm14 0v-1l2 1v1 1zm-54 0h1v1h-1zm2 0h1v1h-1zm2 0h1v1h-1zm33 1v-1h1l1 1h-1zm6-1h1v1h-1zm18 2v-2h1 1v1l-1 1zm-25-1h1v1h-1zm27 0h1v1h-1zm-25 2v-1h1 1v1h-1zm4 1v-2l1 2zm14-2h1v1h-1zm5 1l1-1h1l-1 4-2 1v-2-1-1zm-24 0h1v1h-1zm7 0h1v1h-1zm14 0h1v1h-1zm-17 1h1v1h-1zm12 0h1v1h-1zm-49 1h1v1h-1zm35 1v-1h1 1v1h-1zm3 1v-2h1l1 2h-1zm12-1v-1h1l1 1h-1zm-9 0h1v1h-1zm5 0h1v1h-1zm2 0h1v1h-1zm-15 2v-1l1 1zm3 0l1-1h1v3h-2zm15-1h1v1h-1zm2 2l1-2 1 4zm-11-1h1v1h-1zm-34 3l2-2 7 15-5-5-2-3-1-1zm30-1l1-1h1l1 1v1l-1 1h-1l-1-1zm5-1h1v1h-1zm-10 2v-1h3l-1 1zm9-1h1v1h-1zm13 3v-2h1zm-15-1h1v1h-1zm9 0h1v1h-1zm2 0h1v1h-1zm8 4l1-4 3 2 1 1 1 1v1l-1 1-1 1-7 1h-1v-1-1l2-2h1l3 1h1v-1h-1zm-22 0l-2-3 2 2zm12-1l1-2h1l1 2-1 1-2 1h-2v-1zm-2-2h1v1h-1zm-46 2v-1h2v1zm40 0v-1l3 1-1 2-3 1v-1zm5 0v-1h1v2zm-42 0h1v1h-1zm4 0h1v1h-1zm31 2l1-2v2zm26-2h1v1h-1zm-56 1h1v1h-1zm45 1l2-1-1 1zm12 0l1-1h1v1 1zm-59 0h1v1h-1zm31 1v-1h1v2h-1zm6 0l3-1v3h-1v-1l-1-1zm9 1l1-2v2zm16-2h1v1h-1zm-26 1h1v1h-1zm25 0h1v1h-1zm-70 2v-1h4v2h-4zm11-1h1v1h-1zm2 0h1v1h-1zm29 1v-1h3v1zm23-1h1v1h-1zm5 2l1-2h1v2l-1 1h-1zm-60-1h1v1h-1zm31 0h1v1h-1zm17 0h1v1h-1zm16 1v-1l1 1v1h-1zm-66 2l1-2 1 3h-1zm38-2h1v1h-1zm11 0h1v1h-1zm8 1v-1h4v1l-1 1h-2zm-66 1l1-1 1 2h-1zm12 0l1-1h1v1 2h-1l-1-1zm34-1h1v1h-1zm1 1l1-1 3 1-2 1h-2zm10-1h1v1h-1zm2 0h1v1h-1zm2 1v-1h3v1l-2 1zm4-1h1v1h-1zm-9 1h1v1h-1zm10 0h1v1h-1zm-60 1h1v1h-1zm5 0h1v1h-1zm10 3l-1-3 8 8v1h1l1 1h1l2 2v1 1h1l1 3 5 4v1 2h-2l-3-3-1-1-1-2-2-1-1-1-3-4-1-1-1-2-3-5zm25-1v-2h1v2zm16 0v-2h1zm-53 0l1-1h1l-2 2zm7-1h1v1h-1zm32 1l1-1 1 1-2 1zm9-1h1v1h-1zm-53 2v-1l1 1v1zm3 0v-1h1l1 1-2 1zm10 0v-1h1v1 1h-1zm28 1l1-2 1 1v2zm5 0v-2h1v2zm8-2h1v1h-1zm2 1v-1h2v1zm-45 1v-1h1v1 1h-1zm5-1h1v1h-1zm39 0h1v1h-1zm-53 1h1v1h-1zm15 0h1v1h-1zm40 0h1v1h-1zm-47 1h1v1h-1zm36 0h1v1h-1zm3 0h1v1h-1zm9 0h1v1h-1zm2 0h1v1h-1zm-56 2v-1h1 2v1h-2zm41-1h1v1h-1zm3 0h1v1h-1zm12 1l1-1h1v2h-1zm-60 1l2-1h1l1 1v1h-3-2v-1zm7 0v-1h1 1v1l-1 1zm40-1h1v1h-1zm3 0h1v1h-1zm-4 1h1v1h-1zm-49 2l-4-1h3 1zm7-1h1v1h-1zm4 0h1v1h-1zm12 0h1v1h-1zm23 2v-2h1v2zm3 0l-1-2h1zm2-2h1v1h-1zm3 0h1v1h-1zm-60 1h1v1h-1zm8 1v-1h2v1zm6 1l3-2v1l-1 1h-1zm4-2h1v1h-1zm38 0h1v1h-1zm-37 1h1v1h-1zm11 0h1v1h-1zm25 0h1v1h-1zm3 1v-1h1l1 1h-1zm3-1h1v1h-1zm-46 3l1-2 1 3h-1zm3-2h1v1h-1zm13 0h1v1h-1zm25 1v-1h1 1v1zm-37 1v-1h1 1v1h-1zm40 0v-1h1l2 3h-1-1zm3-1h1v1h-1zm-54 1h1v1h-1zm50 0h1v1h-1zm-49 1h1v1h-1zm7 1l1-1h1v3zm4 0v-1h1 1l-1 2zm37-1h1v1h-1zm-50 1h1v1h-1zm49 0h1v1h-1zm3 0h1v1h-1zm-2 4v-3h1v3zm4-2v-1h1l1 1h-1zm-54 5v-5l1 5zm30-5h1v1h-1zm23 0h1v1h-1zm-50 2l2-1v1zm49-1h1v1h-1zm2 1v-1h1 1l1 1h-1zm-49 0h1v1h-1zm3 1l1-1h1l1 1v1l-1 2zm23-1h1v1h-1zm20 0h1v1h-1zm7 0h1v1h-1zm-55 1h1v1h-1zm29 0h1v1h-1zm24 1l1-1h1l1 2v1h-1-1l-1-1zm-45 0h1v1h-1zm48 0h1v1h-1zm-58 1h1v1h-1zm52 0h1v1h-1zm2 2v-2h1l1 1 1 2v-1h1 1l1 2 1 2v1 2h1v1h-1v2l1 2h1v1h-1l-2 1-1-2v-1l-1-1v-1h-1l-1-3v-1-1l-1-2zm-45-1h1v1h-1zm25 0h1v1h-1zm3 2v-2l2 1v2h-1zm22-2h1v1h-1zm-6 1h1v1h-1zm-17 1h1v1h-1zm24 0h1v1h-1zm-23 1h1v1h-1zm2 0h1v1h-1zm15 0h1v1h-1zm-16 1h1v1h-1zm23 0h1v1h-1zm-22 1h1v1h-1zm2 2v-1l2 2zm-1 0h1v1h-1zm22 0h1v1h-1zm1 2h1v1h-1zm-2 2v-1h1 1v1h-1zm-16 2v-1l2 2zm9-1h1v1h-1zm9 1v-1h1 1v1h-1zm-152 40l-1-40h1zm133-40h1v1h-1zm12 0h1v1h-1zm-9 3v-2h4l1 4v1l-1 1-3-2zm8-1l-1-1h2v1zm8 0v-1h1 1l1 1-1 1h-1zm-6 0h1v1h-1zm2 0h1v1h-1zm3 0h1v1h-1zm-16 1h1v1h-1zm6 2v-2h1v2zm6-2h1v1h-1zm2 1v-1h2v1zm3 0v-1h1v2h-1zm-4 0h1v1h-1zm5 1l1-1h1l-2 2zm-11 2v-2h1v2zm9-2h1v1h-1zm1 1h1v1h-1zm4 0h1v1h-1zm-15 3l-1-2h1 1zm4 0v-2h3v1h-1zm3-1h1v1h-1zm9 0h1v1h-1zm-17 1h1v1h-1zm3 0h1v1h-1zm9 1v-1h1v1 1zm-7 1v-1h2v1h-1zm2 0l1-1h1v1l-1 2h-1v-1zm11-1h1v1h-1zm-14 1h1v1h-1zm1 1h1v1h-1zm10 1l-1-1h1 1v1zm4-1h1v1h-1zm-13 1h1v1h-1zm4 0h1v1h-1zm8 0h1v1h-1zm-7 1h1v1h-1zm1 1l1-1 1 1v1h-1-1zm3 0v-1h1l1 1h-1zm5-1h1v1h-1zm-13 1h1v1h-1zm1 1h1v1h-1zm2 0h1v1h-1zm1 1h1v1h-1zm10 0h1v1h-1zm-10 2h1v1h-1zm1 1h1v1h-1zm10 0h1v1h-1zm25 1h3v11 1l-2-11h-1zm-34 0h1v1h-1zm2 0h1v1h-1zm6 0h1v1h-1zm-7 1h1v1h-1zm3 1v-1h1l1 1-1 1h-1zm6 0v-1h1v2h-1zm-4 1h1v1h-1zm3 0h1v1h-1zm-1 1h1v1h-1zm31 6h1v1h-1zm-5 4v-3h1v3zm4-3h1v1h-1zm-1 1h1v1h-1zm-2 2h1v1h-1zm-19 5l4-1v1zm5 0v-1h21 1zm-148 2v-2l1 2zm29 0v-2h1v2zm57 0v-2h1v2zm61 0l25-1v1zm-175 1v-1h2v1zm-18 10l-1-5 1 1v1l1 1v1zm232-3l1-2h1l-1 5v1l-10 6h-214l-9-7 1-1h1 1l1 1 1 1h1l2 1h216l2-1h1l1-1 1-1h1l1-1z"/>
		<path id="Path 3" fill-rule="evenodd" class="s3" d="m71 57l1-1h4 2 2l1 40 4 4v13l5 4-1 10 2 1v1l-1 2v1h-1l-1 1v1h-1l-1 1v1h-1l-1 2-1 1-1 2-1 1-1 1-1 1-5-9v-2l1-1v-1l-1-2v-2h-1-1l-2-3-6-14 2-8v-2l-1-4v-1-1-3l-1-1v-3l-1-3-1-1v-3l1-1v-2-1-1l1-1v-2-2-1-1-2-1l1-1 1-1v-1l1-1 1-1 1-1 1-1zm-7 39h1v1h-1zm48 9l1-1 2 1 1 1v2l1 5v2l1 1v3 1 3h-1v-2l-1-1v-3l-1-1v-2l-1-2-1-2v3 2 2h-1v-1l-2-2v3h-1v1 2l2 4 1 2v-2l-1-4h1v1l1 1 1 2v1h1l-1-2v-1h1 1v2l1 1v1 1l-1 1v4l-1 2-1 1-1 1-1 1-3 2h-1l-2-1-1-2h-1v-2h1l-1-4v-1-1l-1-7v-1-1l1-1h1l1-2h1l1-2 2-3v-1-1h1l1-1v-1zm-8 11h1v1h-1zm6 1h1v1h-1zm3 2v-2h1v2l-1 1zm-3 0h1v1h-1zm-8 1h1v1h-1zm-6 3h1v1h-1zm-1 1h1v1h-1zm22 3h1v1h-1zm-32 10h1v1h-1zm-1 1h1v1h-1zm17 0h1v1h-1zm4 0h1v1h-1zm-22 3v-2h1v1 1zm-2 2h1v1h-1zm22 0h1v1h-1zm-9 17l1-1h1l6 16 2 1 1 1 1 1v1l-1 1v1 2l-1 2v2l-1 1v1l-1 1-1 1v1l-1 1-1 1h-1-2l-1-3-1-1-1-5v-2l-1-2-1-3-1-1v-2-8-2l1-1 1-1v-1l1-1zm12 21h1v1h-1zm28 4l1-1h1 1v1l1 1v2l1 1v1l1 2v2l1 2v1l-1 2v1l-1-1v-1l-1-1v-2-2l-1-1h-1v-1-1h-1v1 1l1 4v1h-1v-1l-1-1v1 1 1h-1v-1l-1-2v-1-2l1-3 1-1zm-27 6l1-1h1l1 1v1l2 2 4 17 3 1v1 1l1 1v1l-1 1v1l-1 1v1l-1 1v1l-1 1v1l-1 1-1 1v1l-1 1h-2v-1l-1-1-2-2v-1l-2-3v-1-11l-2 1v-3-1-1-4l-2 1 1-3 1-2v-2h1l1-1v-1zm-6 1h1v1h-1zm-1 1h1v1h-1zm29 5l1-2 2 1v3l1 2 1 1v2l2 2-1-2v-2l-1-1v-3-1l1 1 1 2v2l1 1v1h1v-2-1-1l2 2v-3h1l1 2v2l-1 1-1 1v2l-3 8-1 2v1l-1 1-1 2h-1-1l-1-1 1-1h-1l-1-1v-1-1h-1v-2h-1v-1-1-2l-2-5v-1-2l1-1 1-1v-2zm7 1v-2h1v1l1 1v2h-1l-1-1zm-17-1h1v1h-1zm5 10h1v1h-1zm2 3l-1-2h1v1zm-6 6h1v1h-1zm8 0h1v1h-1zm-12 8h1v1h-1zm13 1h1v1h-1zm0 11l1-3h1v1l4 15 5 4v10h4l8 14v8l6 2 6 12 2 3v1l4 5v3l3 6v1l3 7v2l-2 2h-4l-2-2v-1l-2-3-2-2v-1l-1-1v-1h-1v-2-2l-1-1h-1v-1-1l-2-1v-1l-1-1h-1l-1-1v-2l-1-1-1-1-2-2h-1l-1-1-1-1-8-8-7-15-3-4-2-1-6-21 1-1 1-1v-1h1v-1-1l1-1 1-4 1-1v-2zm34 60h1v1h-1zm2 3h1v1h-1zm2 3h1v1h-1z"/>
		<path id="Path 4" fill-rule="evenodd" class="s4" d="m247 383l-8 7h-217l-11-8v-349l2 344 1 5 9 7h214zm1-7l1-343 1 346-3 3 1-5zm-160-340h28-1zm57 0l15-1v1zm23 0v-1h2v1zm3-1h1v1h-1zm60 1v-1l1 133h-1zm-115 0h1v1h-1zm28 0h1v1h-1zm58 2v-2 1zm-169 1v-1h26zm81-1h1v1h-1zm115 148l-1-145h1zm-197-144h1v1h-1zm6 1h2-1zm-1 0h1v1h-1zm-2 3l2-2v2h-1zm2 0h1v1h-1zm-5 1h1v1h-1zm5 10v-9h1v9zm39-3l3-1v1h-2zm11 0v-1l2 1zm-15 1l2-1v1zm18-1h1v1h-1zm-20 1h1v1h-1zm8 1v-1h1 5 3v1h-7zm14-1h1v1h-1zm-5 3l1-2h1l2 1h1l1 1 1 1v1h-2l-1-1zm7-2h1v1h-1zm-56 3l-1-2 1 1zm2-1v-1 2zm26 0h1v1h-1zm31 0h1v1h-1zm-32 1h1v1h-1zm33 0h1v1h-1zm-8 3l-4-2 3 1h1zm4-1v-1h2v1zm2 0h1v1h-1zm-33 1h1v1h-1zm29 2v-2h1l1 1zm5-2h1v1h-1zm3 0h1v1h-1zm-38 2h1v1h-1zm40 2h1v1h-1zm-42 1h1v1h-1zm3 1h1v1h-1zm31 2l1-2h1v5l1 1v1 3l-1-1-1-1-1-1zm9 0v-2l1 2zm-44-1h1v1h-1zm33 0h1v1h-1zm8 0h1v1h-1zm-9 1h1v1h-1zm-33 4l1-3v3zm40-2h1v1h-1zm6 0h1v1h-1zm-5 2v-1h1v2h-1zm3 1v-1h1v1 1h-1zm3-1h1v1h-1zm1 1h1v1h-1zm1 1h1v1h-1zm-50 5l1-4v4zm51-4h1v1h-1zm-14 2h1v1h-1zm3 1l2-1-1 3-1 1h-1v-2zm5 3v-4h1v1 3l-1 1zm7-4h1v1h-1zm-3 1h1v1h-1zm4 0h1v1h-1zm-5 5v-4h1v2zm3-3v-1l1 2h-1zm3 0h1v1h-1zm-12 1h1v1h-1zm-40 1h1v1h-1zm40 2l1-2h1v1l1 1v1 1 1l1 2v1 1l-2-1v-1-1-1l-2-2zm-39-1h1v1h-1zm36 0h1v1h-1zm-40 1h1v1h-1zm2 2v-2h1 1zm46 3v-4h1v4zm32-3h1v1h-1zm-79 5v-4h1v4zm42 1l-1-5h1v1l1 3zm25-5h1v1h-1zm-17 2l1-1 1 2h-2zm27-1h1v1h-1zm-72 5v-4h1v1 3zm63-3v-1h1l1 1v2l1 1v1l-4-2v-1zm7-1h1v1h-1zm4 4v-4h1zm-26-2v-1h2v1l-1 1zm12-1h1v1h-1zm6 0h1v1h-1zm5 0h1v1h-1zm-30 1h1v1h-1zm27 2l2-2h1l1 1v1 1l-1 1-1 3-1 1-1 1h-1v-1-1zm-1-2h1v1h-1zm5 0h1v1h-1zm-78 1h1v1h-1zm2 1v-1l2 2h-1zm43 0v-1h2v1zm3-1h1v1h-1zm46 0h1v1h-1zm-50 1h1v1h-1zm5 1v-1l1 1v1h-1zm16 1l1-2v2zm2 0v-2h1v3l1 2h2v1l-1 1v1l-1 1h-1v-2l-1-1v-2zm26-2h1v1h-1zm2 0h1v1h-1zm-94 1h1v1h-1zm91 0h1v1h-1zm2 0h1v1h-1zm-48 2v-1h2v1zm45-1h1v1h-1zm3 2l-1-2h1zm-48-1v2l-2-2zm4 0h1v1h-1zm8 2v-2l1 2zm8 0l-1-2 1 1zm23-2h1v1h-1zm-37 1h1v1h-1zm3 2v-2h1v1zm23-2h1v1h-1zm10 0h1v1h-1zm-84 3l-1-2h1zm46-2h1v1h-1zm9 0h1v1h-1zm27 0h1v1h-1zm3 2l1-2h2 2l1 1v1l-1 2h-1l-1-1h-1l-1-1zm7-2h1v1h-1zm-12 1h1v1h-1zm15 0h1v1h-1zm-51 1h1v1h-1zm24 0h1v1h-1zm10 0h1v1h-1zm13 2l1-2 2 1h1l1 1v1h-3-2zm5-2h1v1h-1zm-96 1h1v1h-1zm49 0h1v1h-1zm8 2v-2l1 2zm5-2h1v1h-1zm9 0h1v1h-1zm11 2v-2h2v1l-1 1zm-40 2l1-2 2 1 1 1v1h-1-1l-1 1h-1zm22 4l-1-6h1v3 1zm4-6h1v1h-1zm11 0h1v1h-1zm3 1l1-1-1 2zm6 4l-2-5h2l2 2 1 1v1 1h1v2h-1-1l-1-1h-1zm9-5h1v1h-1zm-95 8l-1-7h1zm64-7h1v1h-1zm8 0h1v1h-1zm20 1v-1h2zm-36 3v-3l1 3zm11-3h1v1h-1zm3 0h1v1h-1zm20 2v-2h1v2zm-41-1h1v1h-1zm29 0h1v1h-1zm3 1v-1l3 2h-1zm-38 2v-2h1v1l1 1v1l-1 1h-2v-1zm16-2h1v1h-1zm20 0h1v1h-1zm-13 1h1v1h-1zm14 0h1v1h-1zm11 0h1v1h-1zm-45 3l1-2h1l-2 3zm36-2h1v1h-1zm-21 1h1v1h-1zm25 0h1v1h-1zm4 2l-2-1h1 1zm2-1h1v1h-1zm-47 2v-1h1l-1 2zm12-1h1v1h-1zm-56 4l-1-3h1zm41-3h1v1h-1zm17 0h1v1h-1zm3 0h1v1h-1zm-4 1h1v1h-1zm6 0h1v1h-1zm3 1v-1l2 1zm-5 0h1v1h-1zm-14 1h1v1h-1zm12 1l1-1h1v1h-1zm4 0v-1h2v3h-1l-1-1zm-63 3v-3h1v3zm67 0v-3h1l1 1v2h-1zm3-3h1v1h-1zm-35 2l2-1v1h-1zm20 2v-3h1v3zm4 1v-4h1v3zm3-1l-1-3h1 1v2 1zm-25-1l1-1h1v4h-1-1v2 1h-1-1l-1-2v-1l1-1 1-1v-1zm34 0h1v1h-1zm-8 2v-1h1v1 1h-1zm5-1h1v1h-1zm-37 3l1-2v1 1zm29 1v-3h1 1v1l1 1v2 1h-1l-1-1h-1zm5-2v-1h2 1v1l-1 1h-2zm5-1h1v1h-1zm-69 4l-1-2h1zm4-1l1-1 1 1v1h-1-1zm2-1h1v1h-1zm62 0h1v1h-1zm-1 9v-8h1zm-64-6v-1h1v1 2h-1zm24 0v-1h2v1l-1 1zm9 1v-2h1v2l1 1v2 1h-1v-1l-1-1zm2-1v-1h2v1 1 3h-1v-2-1zm18 1v-1h2zm4 0v-1h1l1 2v1h-1-1zm-26 1v-1h1v2l-1 1v-1zm-34 2l1-2v2zm2 1v-3h1v1 2zm53-2v-1h1l3 3 1 2h1v1 3h-1v-1-1l-2-1-1-2v-2l-1 2h-1l-1-1v-1zm-22 2v-2 1zm-29 1v-2h1l-1 3zm56-2h1v1h-1zm-25 2l1-1v1 1h-1zm3 1v-2h1v2l1 1v2 1l-2-2zm25-2h1v1h-1zm-71 1h1v1h-1zm4 0h1v1h-1zm3 2l1-2v2zm7-2h1v1h-1zm-16 1h1v1h-1zm3 1l2-1 1 1 1 1v1 1h-1l-1-1v1l1 1v2h-1l-1-1-1-1-1-1-1-1v-1l1-1zm4-1h1v1h-1zm4 2v-2h1v2zm35 0v-2h1v2zm5-1v-1l1 2h-1zm10 0l1-1h1v1l1 2v1 1h-1-2-1l-1-1v-1l1-1zm-62 2l1-2v1zm9-2h1v1h-1zm5 2v-2h1zm53-1v-1h1v2 1h-1v-1zm-36 1l1-1h1l-2 2zm-31 0h1v1h-1zm75 6v-6l1 1v4zm-64-5h1v1h-1zm41 2l-1-2 1 1zm16 0v-2h1zm-66-1h1v1h-1zm11 0h1v1h-1zm7 0h1v1h-1zm10 0h1v1h-1zm35 3v-3h1v2l1 1 1 1v4 1h-1v-1l-1-2v-1l-1-1zm-51-2h1v1h-1zm35 3v-3h1v1 1 1zm12-2h1v1h-1zm10 0h1v1h-1zm-63 1h1v1h-1zm5 1v-1h2v1h-1zm3-1h1v1h-1zm12 1v-1h1l-1 2zm44 0v-1l1 2h-1zm-65 1h1v1h-1zm5 1l2-1h1v2 2l-2-1-1-1zm10-1h1v1h-1zm41 5v-5h1l1 3-1 1v1zm12-3v-2l1 2v1h-1zm-52 1v-2l1 2zm3-1v-1h1l-1 3zm44-1h1v1h-1zm-64 1h1v1h-1zm3 0h1v1h-1zm62 1v-1h1v4zm-60 0h1v1h-1zm37 1l1-1v3h-3l1-1zm27 0l-2-1h1 1zm-58 1v-1 2zm51 0v-1h1v2h-1zm-64 0h1v1h-1zm12 1l-2-1h1 1zm61-1h1v1h-1zm-9 2l1-1h1v4l1 1v1l-1 1-2 2h-1v-1-1l2-3-1-2zm-65 0h1v1h-1zm21 2l-1-2h1zm41-1l-2-1h1 1l1 1zm-61 0h1v1h-1zm22 1v-1l1 3h-1zm13 3l2-4v1l-1 2v1zm37-4h1v1h-1zm-3 1h1v1h-1zm-31 3v-2h1v3h-1zm24-2h1v1h-1zm0 4l-1-3h1v1 1zm11-3h1v1h-1zm-50 2v-1l2 4h-1v-2zm-2 0h1v1h-1zm45 2v-2h1v1 1zm5 0l1-2v2zm3 0v-2l1 2zm-41 1l1-2v1 1zm33 0l-2-1h2zm-44 0h1v1h-1zm53 2v-2l1 2zm-10 0l1-1h2 1l-1 1zm7 1v-2h1v1zm-47 0v-1h2v5h-1v-3zm6 1l1-2v1zm-8-1h1v1h-1zm23 2l2-2v1l-1 1zm1 0l1-1 2 2-2 2-1-1v-1zm4 0v-1l2 2h-1zm19 0l1-1v1l-1 1zm3 1v-2h1v1zm3-2h1v1h-1zm-11 4v-3h1l1 1v1l-1 1zm-40 0l-1-2h1zm20 0v-2h1v2zm-18 0v-1h2v2h-2zm47 0l1-1v2 1h-1zm3 2v-3l1 3zm-6 0v-2h1v1zm-46-1h1v1h-1zm20 2v-2h1v1 1zm22-1v-1h1v1l-1 1zm-19 3v-3l1 4h-1zm7-1l-2-2 2 1zm20-1v-1h1v2h-1zm-49 0h1v1h-1zm46 2v-2h1v1zm6 0v-2l1 2zm-33 0v-1h1l1 1v1zm12 1l-2-2h1l1 1zm-30-1h1v1h-1zm42 3l-2-3 2 1zm-20-2h1v1h-1zm24 0h1v1h-1zm-45 2h1v1h-1zm28 2l1-2h1v5h-1-1v-1-1zm3 1l1-3-1 4zm12 0v-3h1v2 1zm8-3h1v1h-1zm-29 1h1v1h-1zm30 0h1v1h-1zm-30 2l1-1h3l-2 3h-1l-1-1zm24-1h1v1h-1zm-2 2v-1h1v1l-1 1zm9 0h1v1h-1zm-3 1h1v1h-1zm-30 2l1-1h2v1l-1 1v2l-1 1v2l-1 1h-1l-1-1v-1l1-1v-1l1-1zm9 1l-2-2h1 1zm16 0v-2h1v1 2h-1zm9-2h1v1h-1zm-30 3v-2h1v2zm5 3v-4h1v2 2zm5-3v-1l1 2h-1zm9-1h1v1h-1zm3 1h1v1h-1zm9 0h1v1h-1zm-23 2v-1h1v1 2 1h-1v-2zm-42 1v-1l3 1h-1zm16-1h1v1h-1zm17 1v-1h3v1h-1-1zm-25 0h1v1h-1zm30 1v-1h1l1 1v1h-1-1zm15 4v-5l2 1-1 3v1zm13-5h1v1h-1zm-64 1h1v1h-1zm2 1v-1h2v1h-1zm7-1h1v1h-1zm6 0h1v1h-1zm10 1v-1h1l1 1v1l-1 1-1 1-2 2-1 1-1 1h-1l-1-1 2-3 1-1h1l1-1zm8 0v-1h1 1v1zm-34 0h1v1h-1zm2 0h1v1h-1zm8 4l-2-4h1l1 1h1v1l1 1v1 1zm1-4h1v1h-1zm29 1v-1h1v2h-1zm3 1l1-2v2zm-42-1h1v1h-1zm2 0h1v1h-1zm15 2l-1-2h1zm18-2h1v1h-1zm-23 1h1v1h-1zm32 1v-1l1 5h-2v-1-1zm10-1h1v1h-1zm11 2v-2l1 2zm-64-1h1v1h-1zm40 1l1-1h1v1zm-37 1v-1h2l1 1 2 1h1l1 1 1 1v1h-2l-2-1h-1l-1-1-1-1zm9-1h1v1h-1zm4 2v-2h1v2zm23-1l-1-1h1zm-38 0h1v1h-1zm9 0h1v1h-1zm52 2l1-2v2zm-51-1h1v1h-1zm4 1l-1-1h2v1zm27 1l-2-2h1l1 1zm23 0v-2l1 2zm26-2h1v1h-1zm-89 1h1v1h-1zm16 0h1v1h-1zm63 5l1-5v1 4zm2-5h1v1h-1zm-82 1h1v1h-1zm15 2v-2h1 1v1l-1 1v1h-1zm78-2h1v1h-1zm-94 1h1v1h-1zm5 0h1v1h-1zm54 0h1v1h-1zm27 0h1v1h-1zm5 1l1-1 1 1 1 1v2 4 2h-1v-5l-2 2v2 1 1h-1v-3l-1-2v-2l1-2zm14-1h1v1h-1zm2 0h1v1h-1zm-101 4v-3h1 2v2h-1l-1 1zm12-3h1v1h-1zm28 2l1-2v1 1zm37-1l2-1v1h-1zm6 0l-2-1h2zm6-1h1v1h-1zm11 0h1v1h-1zm-107 1h1v1h-1zm16 4v-4h1v1 4h-1zm4-4h1v1h-1zm65 1l1-1 2 1 1 1-1 2-1-1h-1v1l1 1v1 1h-1l-1-1v-1l-1-1v-3zm21-1h1v1h-1zm-105 3l1-2h1l3 2h1 1 2v1h-1l-1 1h-1-3l-4-1zm25-2h1v1h-1zm46 0h1v1h-1zm33 0h1v1h-1zm-95 1h1v1h-1zm58 1v-1h2l2 1v1h-1-1-1zm5-1h1v1h-1zm10 3l-1-3h1zm18-3h1v1h-1zm-103 1h1v1h-1zm14 0h1v1h-1zm6 2v-2h1zm27 1l1-3v2 1zm3-2v-1h1l2 5h-1v-1l-1-1h-1v-1zm18 0l1-1h1l1 1v1l-1 2h-1l-1-2zm8-1h1v1h-1zm26 0h1v1h-1zm4 0h1v1h-1zm-93 1h1v1h-1zm2 3v-3h1v3zm59-3h1v1h-1zm3 0h1v1h-1zm22 0h1v1h-1zm-88 1h1v1h-1zm6 2v-2h1v1 3l-1 2v2h-1v-2-3zm88-2h1v1h-1zm-103 1h1v1h-1zm3 0h1v1h-1zm19 0h1v1h-1zm24 1l1-1h1l1 2v1l-2 2-1-2v-1zm25 0l-1-1h1 1 2v1h-1-1zm12-1h1v1h-1zm-66 3v-2h1zm25 0l3-2v1l-1 1v1h-1-1zm22-1l1-1 1 1v6h-1l-1-4v-1zm4 2v-3h1v1l1 1v1h-1zm19-2v-1h1v1 1h-1zm9 0v-1h1 1v1l-1 1h-1zm-24 0h1v1h-1zm22 1l-1-1h1zm7-1h1v1h-1zm-89 1h1v1h-1zm11 0h1v1h-1zm65 1v-1h1v2h-1zm10-1h1v1h-1zm2 0h1v1h-1zm-51 3v-2h1v1 2zm24-2h1v1h-1zm24 0h1v1h-1zm-79 1h1v1h-1zm24 0h1v1h-1zm6 2l-1-2h1v1zm22-1v-1h1 2v1zm26-1h1v1h-1zm-80 2l1-1v5h-1l-1-2v-1zm46-1h1v1h-1zm31 1l2-1h1v1l-1 1h-1-1zm-80 0h1v1h-1zm8 0h1v1h-1zm30 2l-1-2h1v1zm23-2h1v1h-1zm-52 1h1v1h-1zm3 0h1v1h-1zm41 0h1v1h-1zm7 1v-1h1v2zm19-1h1v1h-1zm8 0h1v1h-1zm-89 3l1-2v2zm7 0v-2h1v1 6h-1v-1zm33-1v-1h1v1l-1 1zm38 0l1-1h1 1v1l-1 1h-1zm8 0v-1l2 1h-1zm5-1h1v1h-1zm-76 1h1v1h-1zm34 2l1-2v3h-1zm3 0v-2h2v1l-1 1zm20-2h1v1h-1zm12 0h1v1h-1zm5 1v-1h1l1 1h1v1 1h1v1 1 1 1l-1 1h-2v-1h-1l-3-2-1-2v-2h1 1v1l1 1 1 1h1l-1-1v-1zm-58 1v-1h1l-1 2zm12-1h1v1h-1zm26 3l6-3h1l1 1-1 1h-1l-1 1-2 1h-3zm1-3h1v1h-1zm11 0h1v1h-1zm-79 1h1v1h-1zm11 2v-2l1 2zm42-1l-1-1h1 1v1zm5-1h1v1h-1zm3 0h1v1h-1zm5 0h1v1h-1zm11 1v-1h1 1zm4-1h1v1h-1zm11 0h1v1h-1zm-95 1h1v1h-1zm44 2l1-2h1v2 1l-1 1v1h-1v-1l-1-1v-1zm9-2h1v1h-1zm4 0h1v1h-1zm-55 1h1v1h-1zm28 0h1v1h-1zm34 2v-2l1 2zm2-2h1v1h-1zm19 0h1v1h-1zm-84 1h1v1h-1zm47 1v-1h1l-1 2zm20 0v-1h1 1v1l-1 1zm9-1h1v1h-1zm3 0h1v1h-1zm16 1v-1 3zm-97 0h1v1h-1zm7 0h1v1h-1zm3 1v-1h2v2l-1 1h-1zm4 1l1-2v2zm2 0v-2l1 2zm5-2h1v1h-1zm35 1l1-1 1 1v2l-1 1v-1l-1-1zm4 0v-1h1v1 1zm7 0l1-1h1l1 1-3 4-1 1h-1v-3l1-1zm12 0v-1h1 1l1 3 1 1 1 1v1h-1-1l-1-1-1-2v-1zm3-1h1v1h-1zm-81 1h1v1h-1zm75 1l1-1h1l1 1v1 1h-1l-1-1zm-76 0h1v1h-1zm8 0h1v1h-1zm14 0h1v1h-1zm7 0h1v1h-1zm15 2v-2h1v1zm27-1l1-1h1v3zm3 1v-2l2 1 1 1 1 2 1-2h1v2 3h-1l-1-1h-1l-1-1-1-2zm9-2h1v1h-1zm6 0h1v1h-1zm-142 102v-101l1 101zm66-101h1v1h-1zm34 1v-1h1l-1 2zm6 4v-5 1 2 1zm-44-4h1v1h-1zm3 2v-2h1zm11-2h1v1h-1zm31 2v-2l2 1v1l1 1-1 1-2-1zm8 2v-4l1 1v4l-1 1v-1zm32-4h1v1h-1zm-67 2v-1h1v8h-1v-1-1l-1-1v-3zm15 2l2-3v1l-1 1v1zm43-3h1v1h-1zm11 0h1v1h-1zm-71 6l-1-5h1zm42-5h1v1h-1zm6 0h1v1h-1zm-28 2v-1h1l-1 3v-1zm41-1h1v1h-1zm-20 1h1v1h-1zm9 0h1v1h-1zm-35 5l2-4v1l-1 2v1zm37-3h1v1h-1zm4 2v-2h1zm-23 1l-2-2h1 1zm5-1l1-1v1l-1 1zm3 1v-2l1 2zm-6-1h1v1h-1zm20 0h1v1h-1zm-55 1h1v1h-1zm42 1v-1l1 2zm-9 0h1v1h-1zm3 0h1v1h-1zm-117 1h1v1h-1zm82 0h1v1h-1zm3 1v-1l1 2h-1zm33 2v-2h1v1 1zm6-2h1v1h-1zm-41 1h1v1h-1zm3 1v-1l2 5h-1v-2l-1-1zm-85 128l-1-128h1zm115-126v-2h1v1 1zm3-2h1v1h-1zm3 0h1v1h-1zm3 0h1v1h-1zm-41 1h1v1h-1zm8 2l2-2v1l-1 1zm24 1l1-2h1l1 2v1h-1zm4-2h1v1h-1zm3 0h1v1h-1zm3 0h1v1h-1zm-41 1h1v1h-1zm39 1h1v1h-1zm-36 3v-2h3v1l-1 1h-1zm-2-1h1v1h-1zm36 2l1-2v1l1 1v2l1 2v1h-2v-2l-1-2zm6-1h1v1h-1zm-41 1h1v1h-1zm42 1h1v1h-1zm-40 5l-1-4h1zm31-1v-2h1v2zm7-2h1v1h-1zm3 2v-2l1 2zm-5 0h1v1h-1zm6 9v-8l1 8zm-10-6l-1-1h1zm1 0v-1l2 1-2 1zm36-1h1v1h-1zm-71 2h1v1h-1zm69 0h1v1h-1zm-67 2v-1h2 1l-2 4h-1v-2zm35 0l-2-1h3v1zm34-1h1v1h-1zm-4 1h1v1h-1zm-30 3v-2h1v1 1zm29-2h1v1h-1zm-65 3l-1-2h1zm37-1h4l-2 2v1h-1v-1l-1-1zm14-1h1v1h-1zm63 106v-106 107zm-62-105h1v1h-1zm11 0h1v1h-1zm-61 2v-1h4v2h-1-1-1zm52-1h1v1h-1zm-54 1h1v1h-1zm37 3l-1-3h1v2zm4-3h1v1h-1zm3 0h1v1h-1zm8 2l1-2 1 1h1l2 2 1 1 1 1v3l-1 2v-2l-1-1-1-1-1-1h-1v1 1h-1l-1-1v-3zm10-2h1v1h-1zm2 1v-1h1v2h-1zm-60 0h1v1h-1zm53 0h1v1h-1zm9 0h1v1h-1zm-64 1h1v1h-1zm37 0h1v1h-1zm3 1l1-1v1 2h-1zm3 1v-2l1 2zm13-2h1v1h-1zm1 1h1v1h-1zm2 0h1v1h-1zm-21 3v-2h1v2zm-36-1h1v1h-1zm34 3v-3h1l1 2-1 2zm5-3h1v1h-1zm3 2v-2l1 2zm14-2h1v1h-1zm5 8v-8h1zm-15-7h1v1h-1zm11 2l2-1v1 4 2l-1 2-1 1-2 1-1 2h-2l-1 1h-1-2v-3h2l2 1v-1-1l1-1h1l1-1 1-1 1-2v-1zm-20 1v-2h1v1zm13-1v-1h1 1v1l1 1v3 1h-1l-1-1v-2zm-10 2v-2h1v1 1zm3-2h1v1h-1zm4 0h1v1h-1zm-3 1h1v1h-1zm1 1h1v1h-1zm-3 2v-1h1l1 1 1 1 1 1v1l-1 1-3-1v-1-1zm-6 1l-2-1h2zm2 0l1-1 1 1-1 5h-1v-1-1zm9-1h1v1h-1zm2 0h1v1h-1zm4 1h1v1h-1zm-51 4v-2 1zm2-2h1v1h-1zm42 0h1v1h-1zm3 0h1v1h-1zm16 1l-1-1 2 1zm-59 0h1v1h-1zm35 2v-2h1zm26-2h1v1h-1zm-60 1h1v1h-1zm55 1l-3-1h1 2 1v1zm7-1h1v1h-1zm-67 1h1v1h-1zm3 3v-3l3 2 1 1 1 1v2 1h-1l-1-3-1 2 1 1v1l-1 1-1-1v-1l-1-1zm5-2v-1h1v1 1h-1zm31 0l3-1v1 1h-3zm14 1v-2h1v1 1zm10-1l1-1h1l2 1 1 1-1 2h-1-4v-1l1-1zm-26 1l-1-1h1zm5 0l1-1h1l1 1v1l-1 1h-1l-1-1zm27-1h1v1h-1zm-77 1h1v1h-1zm3 1l2-1v1zm60 0l7-1v1h-6zm15-1h1v1h-1zm-79 1h1v1h-1zm18 2v-2h1v2zm-16-1h1v1h-1zm4 1v-1h4l1 2v1l1 1v1 1h-2l-1-1-1-1h-1v-1zm41-1h1v1h-1zm4 0h1v1h-1zm8 0h1v1h-1zm3 0h1v1h-1zm15 1l1-1h2v1zm4-1h1v1h-1zm-77 1h1v1h-1zm48 0h1v1h-1zm8 0h1v1h-1zm3 1v-1h1l1 1h1l1 1v2h-2-1l-1-1zm6-1h1v1h-1zm5 1l1-1h1zm-55 2v-2l2 1v1zm30 3v-5l2 1v2l-1 2zm5-4l2-1v1 2h-1l-1-1zm-37 1v-1l1 1zm44-1h1v1h-1zm6 2l1-2 2 5h-1l-1-1-1-1zm4-2h1v1h-1zm-65 1h1v1h-1zm16 0h1v1h-1zm-15 1h1v1h-1zm13 1v-1h1 1v1h-1zm32 0l-1-1h1 1v1zm-36 3l3-3h1v1l-1 1-2 2h-1zm7-3h1v1h-1zm35 2v-2l1 2zm-48-1h1v1h-1zm11 0h1v1h-1zm28 2l1-2 2 1h1l1 1 1 1v1 1h-1l-1-1-1-1h-1l-1 1h-1zm6-2h1v1h-1zm10 0h1v1h-1zm-39 1h1v1h-1zm30 1v-1h1v1 1h-1zm-44 0h1v1h-1zm47 0h1v1h-1zm9 0h1v1h-1zm-55 2l1-1h2v1l-2 1h-1zm5-1h1v1h-1zm9 0h1v1h-1zm30 1v-1h1v2h-1zm-52 1l3-1v1h-2zm55-1h1v1h-1zm10 0h1v1h-1zm-69 2l1-1 4 1h2v1h-7zm9 0v-1h3v1l-2 2h-1v-1zm8-1h1v1h-1zm33 2v-2h1v2 1h-1zm4 0v-2h1v1 1zm3-1v-1l1 2h-1zm-57 1l-2 1 1-2zm28-1h1v1h-1zm-13 2l1-1h1v1l1 1v1l-1 1h-1zm40-1h1v1h-1zm-42 6v-5h1v2l1 1v1l2 2v-3l1-1h1v1 1l-1 1v2l-1 1h-1-1l-1-1v-1zm6-5h1v1h-1zm10 0h1v1h-1zm24 2l-1-2 1 1zm5-2h1v1h-1zm-49 3l2-2v6l-2 1v1l-1-5h1zm21-2h1v1h-1zm26 2l-1-2h2v1 1zm-36-1h1v1h-1zm-14 1h1v1h-1zm48 2v-2l1 1 1 1v3h-2zm3-1v-1h1v1 1h-1zm5-1h1v1h-1zm-29 1h1v1h-1zm27 0h1v1h-1zm-26 1h1v1h-1zm24 2v-2h1v1 1zm5-2h1v1h-1zm-28 1h1v1h-1zm26 0h1v1h-1zm-25 1h1v1h-1zm22 1l1-1h1v1l-1 3v1l-1-3zm6-1h1v1h-1zm-52 2v-1h2v1zm50 0v-1h1v1l-1 1zm-52 0h1v1h-1zm55 0h1v1h-1zm-56 1h1v1h-1zm52 0h1v1h-1zm-55 1h1v1h-1zm2 0h1v1h-1zm9 1v-1h1l-1 2zm49-1h1v1h-1zm-59 1h1v1h-1zm33 0h1v1h-1zm24 0h1v1h-1zm3 1h1v1h-1zm-6 3l-1-2h1v1zm7-1h1v1h-1zm-23 2h1v1h-1zm17 0h1v1h-1zm-16 1h1v1h-1zm23 0h1v1h-1zm1 2h1v1h-1zm-2 1h1v1h-1zm-8 3v-2l2 2h-1zm2 0l2-2h1v1l1 1v1l1 2h-1-1v-1l-1-1h-1-1zm-13-1h1v1h-1zm20 2v-2h1v1 1zm2-2h1v1h-1zm42 41v-40h1v40zm-43-39h1v1h-1zm-19 1h1v1h-1zm8 2l1-2h1l1 1v1h-2zm8-1l2-1v1 1h-2zm-5 1l1-1h1v1l1 1v1h-1l-1 1-1 1v2h-1v-2-2zm7 0h1v1h-1zm2 2v-2h1v1zm2-2h1v1h-1zm-19 2h1v1h-1zm12 1l-1-1h1 1 1l1 1h1l1 1v1 1h-1-1l-1-1-1-1zm9 1h1v1h-1zm-10 3v-2h1v1 1l-1 1zm2 0v-1h1l2 1 1 1h1v1l1 1v1 1h-1l-1-1-1-1h-1l-2-2zm4-1h1v1h-1zm5 0h1v1h-1zm-14 1h1v1h-1zm10 1v-1h1 1l1 1-1 1h-1zm-9 0h1v1h-1zm11 1l1-1h1v2l1 1v2l1 2v1l1 1v1l1 1 1 1v1h-1-2v-1l-2-2-1-6-1-1v-1zm3-1h1v1h-1zm-16 1h1v1h-1zm3 0h1v1h-1zm-2 1h1v1h-1zm3 1v-1h1 2v1l-1 1h-1zm13-1h1v1h-1zm-15 1h1v1h-1zm6 2v-1h1v1 1h-1zm1 1l1-1h1l2 5h-1l-1-1h-1v-1l-1-1zm9-1h1v1h-1zm-12 1h1v1h-1zm1 1h1v1h-1zm12 1h1v1h-1zm25 2l-1-2h5l-1 2zm-31 0h1v1h-1zm7 0h1v1h-1zm24 11v-10h1v10zm-30-8l-2-1h2zm1 0h1v1h-1zm6 0h1v1h-1zm-4 1h1v1h-1zm31 6h1v1h-1zm2 0h1v1h-1zm-3 1h1v1h-1zm2 0h1v1h-1zm-3 4l-2-1h1zm-134 4h6-5zm57 0h28-27zm61-1h1v1h-1zm-176 3h1v1h-1zm3 1v-1h26 1zm83-1h-28 1zm32 0h-3 1zm19 0h1v1h-1zm5 0h1v1h-1zm74 5h1v1h-1zm-234 1h1v1h-1zm1 2h1v1h-1zm231 0h1v1h-1zm-230 1h1v1h-1zm229 0h1v1h-1zm-227 1h1v1h-1zm225 0h1v1h-1zm-224 1h1v1h-1zm223 0h1v1h-1z"/>
		<path id="Path 5" fill-rule="evenodd" class="s5" d="m89 127l1-10-5-4v-13l-4-4-1-40h7 1l-1 2h-1v1 1l4 2 1 2h1v3 1 1 1h-1-1v2 1l2 1v1l1 1h1v3l1 1 1 1v2 1 1l1 1 1 3 1 5 1 1v1 2l2 2v-2h2l-1 4-1 1v1 1 2 2l1 1v1l1 1v1 2 1 1l-1 1-1 1h-1v1h-1l-2 1v1h-1l-1 1v1h-1l-1 2v1 1h-1-2zm-31-39l2-2h1 1v3 2 4 1h-2l-2-2v-1-4zm66 7v-1l4 2v1 1 1l-1 1h-2l-1-2zm26 9l1-2h1l-1 2zm-7 1l1-1 2 1 2 5h-1-1l-3-2h-1v-1zm-1 0h1v1h-1zm-14 16v-3h2v1 3h-2zm-26 4v-4h1l1 7h-2v-1zm-6 2v-1h1l1 2v1 1 1l-1 1v2l1 1v1l2 2h1l1 1v2 1 3 1h-1l-1 1v1h-1l-1 1v1h-1l-1 1-1 1-1 1v1l-2 4v1 1h-1l-1 2v1 1h-1l-1 2v1l-1 1-1 1h-2v-5l1-2v-1l-1 3h-2v-1-1l-2-4v-1l-1-3h-1v-4h1l1-3v-1h1l1-2v-1-1h1l1-1v-1l2-2v-1l1-1 1-1 1-1 1-1h1v-1l1-1h1v-1l1-1 1-1zm26 2v-1h1 1v1 1 2 1 1h-1l-3-3v-1zm-18 4v-3l1 4h-1zm20 3v-2h1v2zm-18 3v-1l2 1-1 1zm4 2l1-1h1 1l1 1v2l1 1 1 1v1 5 2l2 1v1 1 1l1 3h1v1l2 3v1 1 1 3 1l2 1v1 1 1l2 3 2 8v1 3 5 1 1l-1 1-1 1v1 1l-1 1-1 2v1 1h-1l-1 3v1l-3 2-3-1-4-17h1 1 1 1v2l1 1h1v1l2 2v1h1v-1l1-1-1-5h-1v-2-3-1l-1-2-1 1v1h-1l-1-1v-5l1-4h-1v-1-2l-1-1h-1v-1l-1-1-1-1-1-1-1-1v-1l-2-2-2-1-1-1-1-1h-2v1 4 2 1 2 1 1l-6-16v-3-1l1-1 1-1 1-1h3v-3l1-1 1-1 1-1 1-1v-1h1l1-1v-1zm-5 29l2-2h1v1 1h1v1l1 1 2 2 2 2v1 1l-1 2h-1-1-3v-1-1-1l-1-1h-1l-1-4zm2 10h1v1h-1zm-1 3v-1h1l1 1v1h-2zm4 2v-1h2l2 2v4h-1-1v-1l-2-2zm-1 5h1v1h-1zm-29 3v-1h1 2 1l2 4v2l-2-1-1-1h-2l-1-1v-1zm32 1l-2-2h2v1zm-32 9l1-1h1 1 1v3l-1 1-3-2zm62 6l1-1 1 2-1 1-1-1zm7 1h1v1h-1zm-27 4v-2h1l1 2 1 2 2 4 1 2v1 1l1 1v1l1 1v2 1l-2 3v1l-2 4v1 1h-1v1 1l-1 1v1l-2 2v2h-1-3v-1l-2-5-1-2h-1v-1-1-8-1-1h1l1-1v-1l1-1v-1l1-1v-1h1l1-2v-1-1l1-1v-1zm26-1v-1h1 1v1 1h-2zm-29 0h1v1h-1zm21 1v-1h1l1 4v1l-2 1v2 1h-2v-3-2l1-1 1-1zm-4 9v-1h1 1v1l1 1 1 2-1 2v5h1l1 2v1h1l2 2v1 1 1l1 1 1 1v2 2l2 1v1 1 1l1 1 1 2v2 2l1 1h1v1 1l2 1v1 2 1 1l1 3h1v1 1 3 1 2 1l2 1v1l2 3v1 1l1 1h1v1 1l1 1h1v1 5l-1 1 1 1v2l-6-12-6-2v-8l-8-14h-4v-10l-5-4-4-15 1-3v-1-1h1l1-2v-1-1h1l1-2zm-15 37h1v1h-1zm-1 5l2-4h1l1 4v1h-4zm52 8h1v1h-1zm0 12l2-1v1 1zm8 4v-1h6v1 1h-1-1-3zm-14 14l-2-3h1l1 1zm4 6l-4-5h1 1l1 2h1v1zm3 9l-3-6h2l1 1h1l1 3h1v1 1l1 2h1v1l1 1v1l1 3-2 2-2-2-3-7zm3 16v-2h2l-1 2zm8 0h1v1h-1zm4 11v-1h1 1 1l1 6h-1-1zm-2 0h1v1h-1zm6 6v-1l2 2h-1z"/>
		<path id="Path 6" class="s0" d="m59 85h1v1h-1zm74 8h1v1h-1zm8 11v-1h1v2h-1zm-18 13h1v1h-1zm-1 2h1v1h-1zm3 0h1v1h-1zm6 3h1v1h-1zm-4 2h1v1h-1zm-58 2h1v1h-1zm38 17h1v1h-1zm-40 2h1v1h-1zm35 25h1v1h-1zm0 3h1v1h-1zm11 10h1v1h-1zm-3 7h1v1h-1zm4 0h1v1h-1zm-36 1h1v1h-1zm1 1h1v1h-1zm40 2h1v1h-1zm-24 5h1v1h-1zm-13 2h1v1h-1zm80 2h1v1h-1zm-72 3h1v1h-1zm60 5v-1h1v1 2h-1v-1zm-4 3v-1h1 1v1h-1zm30 5h1v1h-1zm-16 66h1v1h-1zm-27 2h1v1h-1zm1 3v-2h1v1l1 1v2l-2-1zm-2 22h1v1h-1zm46 19h1v1h-1zm2 1h1v1h-1zm1 1h1v1h-1zm-3 5v-2h1v2 1h-1zm9-1h1v1h-1zm-5 1h1v1h-1zm6 0h1v1h-1zm-5 6l1-1h1v1 1h-1zm8 6h1v1h-1z"/>
		<path id="Path 7" fill-rule="evenodd" class="s1" d="m98 68h1v1h-1zm3 28h1v1h-1zm-38 5h1v1h-1zm91 1h1v1h-1zm-90 1h1v1h-1zm47 13h1v1h-1zm3 9h1v1h-1zm-40 6h1v1h-1zm16 0h1v1h-1zm35 9v-3 6zm-42-2h1v1h-1zm-28 1h1v1h-1zm4 0h1v1h-1zm6 9h1v1h-1zm38 25v-1 2zm-14 10h1v1h-1zm27 6h1v1h-1zm-16 3h1v1h-1zm-1 1h1v1h-1zm5 12h1v1h-1zm70 6h1v1h-1zm3 0h1v1h-1zm-33 2h1v1h-1zm-17 6h1v1h-1zm-29 3h1v1h-1zm79 0h1v1h-1zm-62 2h1v1h-1zm32 0h1v1h-1zm-39 1h1v1h-1zm6 1h1v1h-1zm25 2h1v1h-1zm30 3h-2 1zm-45 35v-1 8h-1v-1l-1-1-1-1v-1h1 1l1-1zm39 13h1v1h-1zm-30 2h1v1h-1zm-1 2h1v1h-1zm52 0h1v1h-1zm0 2h1v1h-1zm-16 1h1v1h-1zm18 0h1v1h-1zm0 4h1v1h-1zm-57 1h1v1h-1zm49 2h1v1h-1zm-37 2h1v1h-1zm-7 1h1v1h-1zm13 4h1v1h-1zm1 1h1v1h-1zm2 1h1v1h-1zm-4 1h1v1h-1zm4 5h1v1h-1zm4 4h1v1h-1zm24 3h1v1h-1zm-18 3h1v1h-1zm19 3h1v1h-1zm2 0h1v1h-1zm0 5h1v1h-1zm1 2h1v1h-1zm4 3h1v1h-1zm2 9h1v1h-1zm-174 41h1v1h-1z"/>
		<path id="Path 8" class="s2" d="m87 55h1v1h-1zm-1 2h1v1h-1zm6 0h1v1h-1zm-7 1h1v1h-1zm8 0h1v1h-1zm-2 1h1v1h-1zm-24 1h1v1h-1zm22 0h1v1h-1zm-24 3h1v1h-1zm31 10h1v1h-1zm7 2h1v1h-1zm-40 1h1v1h-1zm32 0h1v1h-1zm11 3h1v1h-1zm-1 1h1v1h-1zm-8 2h1v1h-1zm-38 1h1v1h-1zm1 1h1v1h-1zm36 0h1v1h-1zm-35 1h1v1h-1zm3 5h1v1h-1zm61 0h1v1h-1zm-26 3h1v1h-1zm12 0h1v1h-1zm-46 1h1v1h-1zm-7 1h1v1h-1zm55 1h1v1h-1zm20 0h1v1h-1zm-75 1h1v1h-1zm73 0h1v1h-1zm-23 1h1v1h-1zm3 0h1v1h-1zm23 0h1v1h-1zm-7 1h1v1h-1zm4 1h1v1h-1zm2 0h1v1h-1zm-10 1h1v1h-1zm3 0h1v1h-1zm2 0h1v1h-1zm2 0h1v1h-1zm-70 1h1v1h-1zm65 1h1v1h-1zm23 0h1v1h-1zm-36 1h1v1h-1zm-51 1h1v1h-1zm54 0h1v1h-1zm12 0h1v1h-1zm-22 1h1v1h-1zm20 0h1v1h-1zm25 1h1v1h-1zm-47 1h1v1h-1zm7 0h1v1h-1zm-4 4h1v1h-1zm46 1h1v1h-1zm-90 1h1v1h-1zm44 1h1v1h-1zm11 0h1v1h-1zm-2 1h1v1h-1zm-7 1h1v1h-1zm12 0h1v1h-1zm-57 1h1v1h-1zm55 1h1v1h-1zm-2 1h1v1h-1zm6 3h1v1h-1zm-22 1h1v1h-1zm-30 1h1v1h-1zm60 0h1v1h-1zm-57 1h1v1h-1zm44 0h1v1h-1zm-50 1h1v1h-1zm55 0h1v1h-1zm-58 1h1v1h-1zm60 0h1v1h-1zm-32 1h1v1h-1zm31 0h1v1h-1zm-4 1h1v1h-1zm-22 1h1v1h-1zm-9 1h1v1h-1zm30 0h1v1h-1zm-32 2h1v1h-1zm28 0h1v1h-1zm4 0h1v1h-1zm-6 2h1v1h-1zm2 1h1v1h-1zm-61 1h1v1h-1zm60 0h1v1h-1zm6 0h1v1h-1zm-61 1h1v1h-1zm54 0h1v1h-1zm9 0h1v1h-1zm2 0h1v1h-1zm-13 1h1v1h-1zm8 0h1v1h-1zm-61 1h1v1h-1zm1 1h1v1h-1zm22 0h1v1h-1zm27 0h1v1h-1zm-1 1h1v1h-1zm13 0h1v1h-1zm-54 1h1v1h-1zm55 0h1v1h-1zm-58 1h1v1h-1zm54 0h1v1h-1zm2 0h1v1h-1zm-14 1h1v1h-1zm19 0h1v1h-1zm2 0h1v1h-1zm-63 1h1v1h-1zm41 0h1v1h-1zm-1 1h1v1h-1zm25 0h1v1h-1zm-66 1h1v1h-1zm56 0h1v1h-1zm4 0h1v1h-1zm-61 1h1v1h-1zm69 2h1v1h-1zm-33 2h1v1h-1zm27 2h1v1h-1zm1 1h1v1h-1zm-1 1h1v1h-1zm-43 1h1v1h-1zm44 1h1v1h-1zm-45 1h1v1h-1zm26 3h1v1h-1zm-23 1h1v1h-1zm40 1h1v1h-1zm-41 1h1v1h-1zm6 0h1v1h-1zm21 0h1v1h-1zm15 0h1v1h-1zm0 2h1v1h-1zm-2 1h1v1h-1zm11 1h1v1h-1zm-19 1h1v1h-1zm-29 2h1v1h-1zm23 2h1v1h-1zm-22 1h1v1h-1zm5 0h1v1h-1zm-4 3h1v1h-1zm1 2h1v1h-1zm49 1h1v1h-1zm-2 1h1v1h-1zm-27 1h1v1h-1zm30 0h1v1h-1zm-19 1h1v1h-1zm-12 2h1v1h-1zm27 0h1v1h-1zm5 0h1v1h-1zm-3 1h1v1h-1zm-41 1h1v1h-1zm7 0h1v1h-1zm6 0h1v1h-1zm27 0h1v1h-1zm-41 2h1v1h-1zm10 1h1v1h-1zm-1 1h1v1h-1zm-22 1h1v1h-1zm14 0h1v1h-1zm40 0h1v1h-1zm-51 1h1v1h-1zm53 0h1v1h-1zm-55 1h1v1h-1zm18 0h1v1h-1zm28 0h1v1h-1zm11 0h1v1h-1zm-56 1h1v1h-1zm16 0h1v1h-1zm-15 1h1v1h-1zm-1 1h1v1h-1zm9 0h1v1h-1zm45 0h1v1h-1zm-41 1h1v1h-1zm32 0h1v1h-1zm-34 1h1v1h-1zm48 2h1v1h-1zm24 0h1v1h-1zm4 0h1v1h-1zm-86 1h1v1h-1zm54 0h1v1h-1zm7 0h1v1h-1zm19 0h1v1h-1zm-20 1h1v1h-1zm21 0h1v1h-1zm-79 1h1v1h-1zm51 0h1v1h-1zm25 0h1v1h-1zm19 0h1v1h-1zm-81 1h1v1h-1zm43 0h1v1h-1zm-16 1h1v1h-1zm36 0h1v1h-1zm2 0h1v1h-1zm-23 1h1v1h-1zm5 1h1v1h-1zm19 0h1v1h-1zm-25 1h1v1h-1zm28 0h1v1h-1zm-29 2h1v1h-1zm33 0h1v1h-1zm-53 2h1v1h-1zm19 0h1v1h-1zm12 0h1v1h-1zm19 0h1v1h-1zm3 0h1v1h-1zm-82 1h1v1h-1zm5 0h1v1h-1zm73 0h1v1h-1zm-50 1h1v1h-1zm54 0h1v1h-1zm-37 1h1v1h-1zm35 0h1v1h-1zm-80 1h1v1h-1zm14 0h1v1h-1zm13 0h1v1h-1zm19 1h1v1h-1zm28 0h1v1h-1zm-75 1h1v1h-1zm73 0h1v1h-1zm-27 1h1v1h-1zm28 1h1v1h-1zm-31 1h1v1h-1zm2 0h1v1h-1zm9 0h1v1h-1zm12 0h1v1h-1zm23 0h1v1h-1zm-20 1h1v1h-1zm7 0h1v1h-1zm-32 1h1v1h-1zm9 0h1v1h-1zm9 0h1v1h-1zm-42 1h1v1h-1zm54 0h1v1h-1zm-31 1h1v1h-1zm28 0h1v1h-1zm21 0h1v1h-1zm-85 1h1v1h-1zm56 0h1v1h-1zm15 0h1v1h-1zm-55 1h1v1h-1zm17 0h1v1h-1zm2 0h1v1h-1zm11 0h1v1h-1zm20 1h1v1h-1zm-32 1h1v1h-1zm17 0h1v1h-1zm17 0h1v1h-1zm-37 7h1v1h-1zm22 2h1v1h-1zm-33 2h1v1h-1zm7 1h1v1h-1zm2 0h1v1h-1zm-1 2h1v1h-1zm-4 2h1v1h-1zm3 0h1v1h-1zm-4 1h1v1h-1zm3 0h1v1h-1zm-4 2h1v1h-1zm37 3h1v1h-1zm0 11h1v1h-1zm-35 1h1v1h-1zm49 2h1v1h-1zm2 2h1v1h-1zm12 0h1v1h-1zm-15 1h1v1h-1zm2 1h1v1h-1zm5 1h1v1h-1zm-12 2h1v1h-1zm8 2h1v1h-1zm8 0h1v1h-1zm-19 1h1v1h-1zm6 0h1v1h-1zm7 0h1v1h-1zm2 0h1v1h-1zm-46 1h1v1h-1zm38 0h1v1h-1zm1 1h1v1h-1zm9 0h1v1h-1zm-10 1h1v1h-1zm9 0h1v1h-1zm3 1h1v1h-1zm-55 1h1v1h-1zm50 1h1v1h-1zm-41 1h1v1h-1zm54 0h1v1h-1zm-57 1h1v1h-1zm43 0h1v1h-1zm-7 1h1v1h-1zm2 0h1v1h-1zm9 0h1v1h-1zm-59 1h1v1h-1zm2 0h1v1h-1zm43 0h1v1h-1zm2 0h1v1h-1zm8 0h1v1h-1zm2 0h1v1h-1zm5 0h1v1h-1zm-57 1h1v1h-1zm4 1h1v1h-1zm44 0h1v1h-1zm-48 2h1v1h-1zm5 0h1v1h-1zm10 0h1v1h-1zm-4 1h1v1h-1zm48 1h1v1h-1zm-19 1h1v1h-1zm8 0h1v1h-1zm12 0h1v1h-1zm-15 1h1v1h-1zm-26 1h1v1h-1zm24 0h1v1h-1zm-1 1h1v1h-1zm-17 1h1v1h-1zm18 0h1v1h-1zm2 0h1v1h-1zm-14 5h1v1h-1zm15 0h1v1h-1zm-36 1h1v1h-1zm1 2h1v1h-1zm21 0h1v1h-1zm-26 1h1v1h-1zm28 0h1v1h-1zm-27 2h1v1h-1zm3 0h1v1h-1zm44 2h1v1h-1zm-16 1h1v1h-1zm15 0h1v1h-1zm-18 3h1v1h-1zm5 1h1v1h-1zm0 2h1v1h-1zm2 6h1v1h-1zm11 3h1v1h-1zm3 5h1v1h-1zm3 1h1v1h-1zm1 1h1v1h-1zm4 0h1v1h-1zm-3 1h1v1h-1zm4 0h1v1h-1zm1 1h1v1h-1zm-3 4h1v1h-1zm-3 2h1v1h-1zm3 3h1v1h-1zm8 1h1v1h-1zm29 15h1v1h-1zm-18 7h1v1h-1zm43 6h1v1h-1z"/>
		<path id="Path 9" class="s3" d="m103 117h1v1h-1zm-1 1h1v1h-1zm0 11h1v1h-1zm-5 5h1v1h-1zm10 5h1v1h-1zm-5 2h1v1h-1zm-22 4h1v1h-1zm25 39h1v1h-1zm20 17h1v1h-1zm5 22h1v1h-1zm-2 1h1v1h-1zm-6 36h1v1h-1zm30 45h1v1h-1zm38 39h1v1h-1z"/>
		<path id="Path 10" fill-rule="evenodd" class="s4" d="m96 65h1v1h-1zm-4 2h1v1h-1zm2 0h1v1h-1zm3 0h1v1h-1zm-7 2h1v1h-1zm11 2h1v1h-1zm-9 4h1v1h-1zm6 7h1v1h-1zm12 6h1v1h-1zm-3 7h1v1h-1zm28 1h1v1h-1zm-26 5h1v1h-1zm-7 1h1v1h-1zm35 2h1v1h-1zm-2 1h1v1h-1zm-27 3h1v1h-1zm2 2h1v1h-1zm15 0h1v1h-1zm2 1h1v1h-1zm-1 1h1v1h-1zm-1 1h1v1h-1zm-2 3h1v1h-1zm-23 2h1v1h-1zm14 3h1v1h-1zm-18 1h1v1h-1zm-7 4h1v1h-1zm27 1h1v1h-1zm12 2v-1 2zm-35 2h1v1h-1zm-2 2h1v1h-1zm14 1h1v1h-1zm18 6h1v1h-1zm-49 4h1v1h-1zm31 1h1v1h-1zm-5 1h1v1h-1zm-37 1h1v1h-1zm35 1h1v1h-1zm-33 2h1v1h-1zm31 0h1v1h-1zm-2 2h1v1h-1zm-36 1h1v1h-1zm39 0h1v1h-1zm-20 3h1v1h-1zm50 1h1v1h-1zm-41 11h1v1h-1zm21 1h1v1h-1zm4 1h1v1h-1zm14 0h1v1h-1zm-17 1h1v1h-1zm14 2h1v1h-1zm-7 1h1v1h-1zm-10 5h1v1h-1zm27 4h1v1h-1zm-42 3h1v1h-1zm-15 5h1v1h-1zm62 1h1v1h-1zm-23 2h1v1h-1zm12 4h1v1h-1zm-45 3h1v1h-1zm9 4h1v1h-1zm50 0h1v1h-1zm39 4h1v1h-1zm-17 3h1v1h-1zm-61 2h1v1h-1zm28 0h1v1h-1zm23 1h1v1h-1zm-8 3h1v1h-1zm-53 1h1v1h-1zm8 2h1v1h-1zm6 1h1v1h-1zm24 0h1v1h-1zm9 1h1v1h-1zm3 0h1v1h-1zm33 3h1v1h-1zm4 2h1v1h-1zm-23 1h1v1h-1zm-1 1h1v1h-1zm-56 1h-2 1zm62 1h1v1h-1zm2 2h1v1h-1zm-22 1h1v1h-1zm5 0h1v1h-1zm20 1h1v1h-1zm-41 4h1v1h-1zm20 1h1v1h-1zm-20 1h1v1h-1zm1 5h1v1h-1zm26 0h1v1h-1zm-3 2h1v1h-1zm7 0h1v1h-1zm-7 2h1v1h-1zm8 0h1v1h-1zm-35 8h1v1h-1zm66 4h1v1h-1zm-1 1h1v1h-1zm-1 1h1v1h-1zm-4 4h1v1h-1zm-57 6h1v1h-1zm1 1h1v1h-1zm45 0h1v1h-1zm-44 1h1v1h-1zm2 2h1v1h-1zm2 3h1v1h-1zm5 7h1v1h-1zm-7 8h1v1h-1zm15 3h1v1h-1zm4 6h1v1h-1zm1 1h1v1h-1zm-14 6h1v1h-1zm21 2h1v1h-1zm18 3h1v1h-1zm5 5h1v1h-1zm-14 2h1v1h-1zm2 3h1v1h-1zm2 3h1v1h-1zm6 4h1v1h-1zm-2 2h1v1h-1zm3 3h1v1h-1z"/>
		<path id="Path 11" class="s5" d="m103 120h1v1h-1zm1 8h1v1h-1zm-4 22h1v1h-1zm13 31h1v1h-1zm15 31v-1 2zm2 5h1v1h-1zm1 2h1v1h-1zm-1 6h1v1h-1zm-18 10h1v1h-1zm61 37h1v1h-1zm7 57h1v1h-1zm-2 6h1v1h-1zm10 14h1v1h-1z"/>
		<path id="Path 12" class="s0" d="m134 92h1v1h-1zm16 17h1v1h-1zm-46 57h1v1h-1zm-1 25h1v1h-1zm-7 7h1v1h-1zm49 8h1v1h-1zm34 15h1v1h-1zm1 2h1v1h-1zm0 2h1v1h-1zm-58 42h1v1h-1zm3 40h1v1h-1zm65 33h1v1h-1z"/>
		<path id="Path 13" class="s2" d="m122 271h1v1h-1z"/>
		<path id="Path 14" class="s4" d="m121 270h1v1h-1z"/>
	</g>
</svg>